<svg xmlns="http://www.w3.org/2000/svg" version="1.1" xmlns:xlink="http://www.w3.org/1999/xlink" xmlns:svgjs="http://svgjs.dev/svgjs" width="500" height="500" preserveAspectRatio="none" viewBox="0 0 500 500"><g mask="url(&quot;#SvgjsMask1052&quot;)" fill="none"><rect width="500" height="500" x="0" y="0" fill="rgba(33, 37, 41, 1)"></rect><path d="M-31.13 339.15L-31.13 339.15" stroke="rgba(221, 0, 17, 1)" stroke-width="1.5"></path><path d="M-31.13 339.15L26.12 355.1" stroke="rgba(221, 0, 17, 1)" stroke-width="1.5"></path><path d="M-31.13 339.15L-24.58 407.65" stroke="rgba(221, 0, 17, 1)" stroke-width="1.5"></path><path d="M-24.58 407.65L-24.58 407.65" stroke="rgba(221, 0, 17, 1)" stroke-width="1.5"></path><path d="M-24.58 407.65L18.47 403.52" stroke="rgba(221, 0, 17, 1)" stroke-width="1.5"></path><path d="M-24.58 407.65L-37.59 458.88" stroke="rgba(221, 0, 17, 1)" stroke-width="1.5"></path><path d="M-24.58 407.65L26.12 355.1" stroke="rgba(221, 0, 17, 1)" stroke-width="1.5"></path><path d="M-24.58 407.65L39.22 462.33" stroke="rgba(221, 0, 17, 1)" stroke-width="1.5"></path><path d="M-37.59 458.88L-37.59 458.88" stroke="rgba(221, 0, 17, 1)" stroke-width="1.5"></path><path d="M-37.59 458.88L39.22 462.33" stroke="rgba(221, 0, 17, 1)" stroke-width="1.5"></path><path d="M-37.59 458.88L18.47 403.52" stroke="rgba(221, 0, 17, 1)" stroke-width="1.5"></path><path d="M-37.59 458.88L-17.56 543.48" stroke="rgba(221, 0, 17, 1)" stroke-width="1.5"></path><path d="M-37.59 458.88L43.37 530.19" stroke="rgba(221, 0, 17, 1)" stroke-width="1.5"></path><path d="M-17.56 543.48L-17.56 543.48" stroke="rgba(221, 0, 17, 1)" stroke-width="1.5"></path><path d="M-17.56 543.48L43.37 530.19" stroke="rgba(221, 0, 17, 1)" stroke-width="1.5"></path><path d="M26.12 355.1L26.12 355.1" stroke="rgba(221, 0, 17, 1)" stroke-width="1.5"></path><path d="M26.12 355.1L18.47 403.52" stroke="rgba(221, 0, 17, 1)" stroke-width="1.5"></path><path d="M26.12 355.1L99.07 350.48" stroke="rgba(221, 0, 17, 1)" stroke-width="1.5"></path><path d="M26.12 355.1L108.4 395.73" stroke="rgba(221, 0, 17, 1)" stroke-width="1.5"></path><path d="M18.47 403.52L18.47 403.52" stroke="rgba(221, 0, 17, 1)" stroke-width="1.5"></path><path d="M18.47 403.52L39.22 462.33" stroke="rgba(221, 0, 17, 1)" stroke-width="1.5"></path><path d="M18.47 403.52L-31.13 339.15" stroke="rgba(221, 0, 17, 1)" stroke-width="1.5"></path><path d="M39.22 462.33L39.22 462.33" stroke="rgba(221, 0, 17, 1)" stroke-width="1.5"></path><path d="M39.22 462.33L104.41 463.54" stroke="rgba(221, 0, 17, 1)" stroke-width="1.5"></path><path d="M39.22 462.33L43.37 530.19" stroke="rgba(221, 0, 17, 1)" stroke-width="1.5"></path><path d="M43.37 530.19L43.37 530.19" stroke="rgba(221, 0, 17, 1)" stroke-width="1.5"></path><path d="M43.37 530.19L103.86 543.35" stroke="rgba(221, 0, 17, 1)" stroke-width="1.5"></path><path d="M43.37 530.19L104.41 463.54" stroke="rgba(221, 0, 17, 1)" stroke-width="1.5"></path><path d="M99.07 350.48L99.07 350.48" stroke="rgba(221, 0, 17, 1)" stroke-width="1.5"></path><path d="M99.07 350.48L108.4 395.73" stroke="rgba(221, 0, 17, 1)" stroke-width="1.5"></path><path d="M99.07 350.48L152.34 340.92" stroke="rgba(221, 0, 17, 1)" stroke-width="1.5"></path><path d="M99.07 350.48L149.59 394.55" stroke="rgba(221, 0, 17, 1)" stroke-width="1.5"></path><path d="M99.07 350.48L18.47 403.52" stroke="rgba(221, 0, 17, 1)" stroke-width="1.5"></path><path d="M99.07 350.48L169.28 268.93" stroke="rgba(221, 0, 17, 1)" stroke-width="1.5"></path><path d="M108.4 395.73L108.4 395.73" stroke="rgba(221, 0, 17, 1)" stroke-width="1.5"></path><path d="M108.4 395.73L149.59 394.55" stroke="rgba(221, 0, 17, 1)" stroke-width="1.5"></path><path d="M108.4 395.73L104.41 463.54" stroke="rgba(221, 0, 17, 1)" stroke-width="1.5"></path><path d="M108.4 395.73L152.34 340.92" stroke="rgba(221, 0, 17, 1)" stroke-width="1.5"></path><path d="M104.41 463.54L104.41 463.54" stroke="rgba(221, 0, 17, 1)" stroke-width="1.5"></path><path d="M104.41 463.54L166.61 463.28" stroke="rgba(221, 0, 17, 1)" stroke-width="1.5"></path><path d="M103.86 543.35L103.86 543.35" stroke="rgba(221, 0, 17, 1)" stroke-width="1.5"></path><path d="M103.86 543.35L167.86 524.61" stroke="rgba(221, 0, 17, 1)" stroke-width="1.5"></path><path d="M103.86 543.35L104.41 463.54" stroke="rgba(221, 0, 17, 1)" stroke-width="1.5"></path><path d="M103.86 543.35L166.61 463.28" stroke="rgba(221, 0, 17, 1)" stroke-width="1.5"></path><path d="M103.86 543.35L39.22 462.33" stroke="rgba(221, 0, 17, 1)" stroke-width="1.5"></path><path d="M169.28 268.93L169.28 268.93" stroke="rgba(221, 0, 17, 1)" stroke-width="1.5"></path><path d="M169.28 268.93L227.64 267.83" stroke="rgba(221, 0, 17, 1)" stroke-width="1.5"></path><path d="M169.28 268.93L152.34 340.92" stroke="rgba(221, 0, 17, 1)" stroke-width="1.5"></path><path d="M152.34 340.92L152.34 340.92" stroke="rgba(221, 0, 17, 1)" stroke-width="1.5"></path><path d="M152.34 340.92L149.59 394.55" stroke="rgba(221, 0, 17, 1)" stroke-width="1.5"></path><path d="M149.59 394.55L149.59 394.55" stroke="rgba(221, 0, 17, 1)" stroke-width="1.5"></path><path d="M149.59 394.55L166.61 463.28" stroke="rgba(221, 0, 17, 1)" stroke-width="1.5"></path><path d="M149.59 394.55L220.06 407.59" stroke="rgba(221, 0, 17, 1)" stroke-width="1.5"></path><path d="M166.61 463.28L166.61 463.28" stroke="rgba(221, 0, 17, 1)" stroke-width="1.5"></path><path d="M166.61 463.28L219.72 459.61" stroke="rgba(221, 0, 17, 1)" stroke-width="1.5"></path><path d="M166.61 463.28L167.86 524.61" stroke="rgba(221, 0, 17, 1)" stroke-width="1.5"></path><path d="M166.61 463.28L220.06 407.59" stroke="rgba(221, 0, 17, 1)" stroke-width="1.5"></path><path d="M167.86 524.61L167.86 524.61" stroke="rgba(221, 0, 17, 1)" stroke-width="1.5"></path><path d="M167.86 524.61L217.53 531.15" stroke="rgba(221, 0, 17, 1)" stroke-width="1.5"></path><path d="M232.83 213.4L232.83 213.4" stroke="rgba(221, 0, 17, 1)" stroke-width="1.5"></path><path d="M232.83 213.4L227.64 267.83" stroke="rgba(221, 0, 17, 1)" stroke-width="1.5"></path><path d="M232.83 213.4L275.87 276.83" stroke="rgba(221, 0, 17, 1)" stroke-width="1.5"></path><path d="M227.64 267.83L227.64 267.83" stroke="rgba(221, 0, 17, 1)" stroke-width="1.5"></path><path d="M227.64 267.83L275.87 276.83" stroke="rgba(221, 0, 17, 1)" stroke-width="1.5"></path><path d="M211.46 355.15L211.46 355.15" stroke="rgba(221, 0, 17, 1)" stroke-width="1.5"></path><path d="M211.46 355.15L220.06 407.59" stroke="rgba(221, 0, 17, 1)" stroke-width="1.5"></path><path d="M211.46 355.15L152.34 340.92" stroke="rgba(221, 0, 17, 1)" stroke-width="1.5"></path><path d="M211.46 355.15L149.59 394.55" stroke="rgba(221, 0, 17, 1)" stroke-width="1.5"></path><path d="M211.46 355.15L227.64 267.83" stroke="rgba(221, 0, 17, 1)" stroke-width="1.5"></path><path d="M211.46 355.15L290.04 397.72" stroke="rgba(221, 0, 17, 1)" stroke-width="1.5"></path><path d="M220.06 407.59L220.06 407.59" stroke="rgba(221, 0, 17, 1)" stroke-width="1.5"></path><path d="M220.06 407.59L219.72 459.61" stroke="rgba(221, 0, 17, 1)" stroke-width="1.5"></path><path d="M220.06 407.59L290.04 397.72" stroke="rgba(221, 0, 17, 1)" stroke-width="1.5"></path><path d="M220.06 407.59L269.87 478.73" stroke="rgba(221, 0, 17, 1)" stroke-width="1.5"></path><path d="M219.72 459.61L219.72 459.61" stroke="rgba(221, 0, 17, 1)" stroke-width="1.5"></path><path d="M219.72 459.61L269.87 478.73" stroke="rgba(221, 0, 17, 1)" stroke-width="1.5"></path><path d="M219.72 459.61L217.53 531.15" stroke="rgba(221, 0, 17, 1)" stroke-width="1.5"></path><path d="M219.72 459.61L167.86 524.61" stroke="rgba(221, 0, 17, 1)" stroke-width="1.5"></path><path d="M219.72 459.61L290.04 397.72" stroke="rgba(221, 0, 17, 1)" stroke-width="1.5"></path><path d="M217.53 531.15L217.53 531.15" stroke="rgba(221, 0, 17, 1)" stroke-width="1.5"></path><path d="M288.22 96.26L288.22 96.26" stroke="rgba(221, 0, 17, 1)" stroke-width="1.5"></path><path d="M288.22 96.26L277.24 142.65" stroke="rgba(221, 0, 17, 1)" stroke-width="1.5"></path><path d="M288.22 96.26L356.66 100.48" stroke="rgba(221, 0, 17, 1)" stroke-width="1.5"></path><path d="M288.22 96.26L338.59 143.57" stroke="rgba(221, 0, 17, 1)" stroke-width="1.5"></path><path d="M288.22 96.26L352.97 32.38" stroke="rgba(221, 0, 17, 1)" stroke-width="1.5"></path><path d="M288.22 96.26L397.37 102.17" stroke="rgba(221, 0, 17, 1)" stroke-width="1.5"></path><path d="M277.24 142.65L277.24 142.65" stroke="rgba(221, 0, 17, 1)" stroke-width="1.5"></path><path d="M277.24 142.65L338.59 143.57" stroke="rgba(221, 0, 17, 1)" stroke-width="1.5"></path><path d="M277.24 142.65L232.83 213.4" stroke="rgba(221, 0, 17, 1)" stroke-width="1.5"></path><path d="M277.24 142.65L356.66 100.48" stroke="rgba(221, 0, 17, 1)" stroke-width="1.5"></path><path d="M277.24 142.65L337.18 212.95" stroke="rgba(221, 0, 17, 1)" stroke-width="1.5"></path><path d="M277.24 142.65L394.77 160.86" stroke="rgba(221, 0, 17, 1)" stroke-width="1.5"></path><path d="M275.87 276.83L275.87 276.83" stroke="rgba(221, 0, 17, 1)" stroke-width="1.5"></path><path d="M275.87 276.83L336.41 283.88" stroke="rgba(221, 0, 17, 1)" stroke-width="1.5"></path><path d="M275.87 276.83L337.18 212.95" stroke="rgba(221, 0, 17, 1)" stroke-width="1.5"></path><path d="M275.87 276.83L346.32 338.88" stroke="rgba(221, 0, 17, 1)" stroke-width="1.5"></path><path d="M275.87 276.83L211.46 355.15" stroke="rgba(221, 0, 17, 1)" stroke-width="1.5"></path><path d="M290.04 397.72L290.04 397.72" stroke="rgba(221, 0, 17, 1)" stroke-width="1.5"></path><path d="M290.04 397.72L329.38 391.85" stroke="rgba(221, 0, 17, 1)" stroke-width="1.5"></path><path d="M290.04 397.72L346.32 338.88" stroke="rgba(221, 0, 17, 1)" stroke-width="1.5"></path><path d="M290.04 397.72L269.87 478.73" stroke="rgba(221, 0, 17, 1)" stroke-width="1.5"></path><path d="M269.87 478.73L269.87 478.73" stroke="rgba(221, 0, 17, 1)" stroke-width="1.5"></path><path d="M269.87 478.73L291.64 544.44" stroke="rgba(221, 0, 17, 1)" stroke-width="1.5"></path><path d="M291.64 544.44L291.64 544.44" stroke="rgba(221, 0, 17, 1)" stroke-width="1.5"></path><path d="M291.64 544.44L342.47 519.1" stroke="rgba(221, 0, 17, 1)" stroke-width="1.5"></path><path d="M291.64 544.44L217.53 531.15" stroke="rgba(221, 0, 17, 1)" stroke-width="1.5"></path><path d="M291.64 544.44L347.33 459.88" stroke="rgba(221, 0, 17, 1)" stroke-width="1.5"></path><path d="M356.62 -34.05L356.62 -34.05" stroke="rgba(221, 0, 17, 1)" stroke-width="1.5"></path><path d="M356.62 -34.05L396.92 -21.7" stroke="rgba(221, 0, 17, 1)" stroke-width="1.5"></path><path d="M356.62 -34.05L352.97 32.38" stroke="rgba(221, 0, 17, 1)" stroke-width="1.5"></path><path d="M356.62 -34.05L397.9 29.08" stroke="rgba(221, 0, 17, 1)" stroke-width="1.5"></path><path d="M352.97 32.38L352.97 32.38" stroke="rgba(221, 0, 17, 1)" stroke-width="1.5"></path><path d="M352.97 32.38L397.9 29.08" stroke="rgba(221, 0, 17, 1)" stroke-width="1.5"></path><path d="M356.66 100.48L356.66 100.48" stroke="rgba(221, 0, 17, 1)" stroke-width="1.5"></path><path d="M356.66 100.48L397.37 102.17" stroke="rgba(221, 0, 17, 1)" stroke-width="1.5"></path><path d="M356.66 100.48L338.59 143.57" stroke="rgba(221, 0, 17, 1)" stroke-width="1.5"></path><path d="M356.66 100.48L352.97 32.38" stroke="rgba(221, 0, 17, 1)" stroke-width="1.5"></path><path d="M338.59 143.57L338.59 143.57" stroke="rgba(221, 0, 17, 1)" stroke-width="1.5"></path><path d="M338.59 143.57L394.77 160.86" stroke="rgba(221, 0, 17, 1)" stroke-width="1.5"></path><path d="M338.59 143.57L337.18 212.95" stroke="rgba(221, 0, 17, 1)" stroke-width="1.5"></path><path d="M338.59 143.57L397.37 102.17" stroke="rgba(221, 0, 17, 1)" stroke-width="1.5"></path><path d="M337.18 212.95L337.18 212.95" stroke="rgba(221, 0, 17, 1)" stroke-width="1.5"></path><path d="M337.18 212.95L393.95 217.8" stroke="rgba(221, 0, 17, 1)" stroke-width="1.5"></path><path d="M337.18 212.95L336.41 283.88" stroke="rgba(221, 0, 17, 1)" stroke-width="1.5"></path><path d="M337.18 212.95L394.77 160.86" stroke="rgba(221, 0, 17, 1)" stroke-width="1.5"></path><path d="M336.41 283.88L336.41 283.88" stroke="rgba(221, 0, 17, 1)" stroke-width="1.5"></path><path d="M336.41 283.88L346.32 338.88" stroke="rgba(221, 0, 17, 1)" stroke-width="1.5"></path><path d="M336.41 283.88L399.23 294.09" stroke="rgba(221, 0, 17, 1)" stroke-width="1.5"></path><path d="M346.32 338.88L346.32 338.88" stroke="rgba(221, 0, 17, 1)" stroke-width="1.5"></path><path d="M346.32 338.88L329.38 391.85" stroke="rgba(221, 0, 17, 1)" stroke-width="1.5"></path><path d="M346.32 338.88L399.23 294.09" stroke="rgba(221, 0, 17, 1)" stroke-width="1.5"></path><path d="M346.32 338.88L419.58 393.58" stroke="rgba(221, 0, 17, 1)" stroke-width="1.5"></path><path d="M329.38 391.85L329.38 391.85" stroke="rgba(221, 0, 17, 1)" stroke-width="1.5"></path><path d="M347.33 459.88L347.33 459.88" stroke="rgba(221, 0, 17, 1)" stroke-width="1.5"></path><path d="M347.33 459.88L342.47 519.1" stroke="rgba(221, 0, 17, 1)" stroke-width="1.5"></path><path d="M347.33 459.88L329.38 391.85" stroke="rgba(221, 0, 17, 1)" stroke-width="1.5"></path><path d="M342.47 519.1L342.47 519.1" stroke="rgba(221, 0, 17, 1)" stroke-width="1.5"></path><path d="M342.47 519.1L269.87 478.73" stroke="rgba(221, 0, 17, 1)" stroke-width="1.5"></path><path d="M342.47 519.1L467.33 515.81" stroke="rgba(221, 0, 17, 1)" stroke-width="1.5"></path><path d="M342.47 519.1L217.53 531.15" stroke="rgba(221, 0, 17, 1)" stroke-width="1.5"></path><path d="M342.47 519.1L329.38 391.85" stroke="rgba(221, 0, 17, 1)" stroke-width="1.5"></path><path d="M396.92 -21.7L396.92 -21.7" stroke="rgba(221, 0, 17, 1)" stroke-width="1.5"></path><path d="M396.92 -21.7L397.9 29.08" stroke="rgba(221, 0, 17, 1)" stroke-width="1.5"></path><path d="M397.9 29.08L397.9 29.08" stroke="rgba(221, 0, 17, 1)" stroke-width="1.5"></path><path d="M397.9 29.08L454.78 18.63" stroke="rgba(221, 0, 17, 1)" stroke-width="1.5"></path><path d="M397.9 29.08L397.37 102.17" stroke="rgba(221, 0, 17, 1)" stroke-width="1.5"></path><path d="M397.37 102.17L397.37 102.17" stroke="rgba(221, 0, 17, 1)" stroke-width="1.5"></path><path d="M397.37 102.17L394.77 160.86" stroke="rgba(221, 0, 17, 1)" stroke-width="1.5"></path><path d="M397.37 102.17L457.33 97.45" stroke="rgba(221, 0, 17, 1)" stroke-width="1.5"></path><path d="M397.37 102.17L453.43 147.5" stroke="rgba(221, 0, 17, 1)" stroke-width="1.5"></path><path d="M394.77 160.86L394.77 160.86" stroke="rgba(221, 0, 17, 1)" stroke-width="1.5"></path><path d="M394.77 160.86L393.95 217.8" stroke="rgba(221, 0, 17, 1)" stroke-width="1.5"></path><path d="M394.77 160.86L453.43 147.5" stroke="rgba(221, 0, 17, 1)" stroke-width="1.5"></path><path d="M393.95 217.8L393.95 217.8" stroke="rgba(221, 0, 17, 1)" stroke-width="1.5"></path><path d="M393.95 217.8L399.23 294.09" stroke="rgba(221, 0, 17, 1)" stroke-width="1.5"></path><path d="M393.95 217.8L470.27 211.13" stroke="rgba(221, 0, 17, 1)" stroke-width="1.5"></path><path d="M393.95 217.8L336.41 283.88" stroke="rgba(221, 0, 17, 1)" stroke-width="1.5"></path><path d="M393.95 217.8L453.43 147.5" stroke="rgba(221, 0, 17, 1)" stroke-width="1.5"></path><path d="M399.23 294.09L399.23 294.09" stroke="rgba(221, 0, 17, 1)" stroke-width="1.5"></path><path d="M399.23 294.09L463.07 335.03" stroke="rgba(221, 0, 17, 1)" stroke-width="1.5"></path><path d="M399.23 294.09L480.93 271.3" stroke="rgba(221, 0, 17, 1)" stroke-width="1.5"></path><path d="M399.23 294.09L419.58 393.58" stroke="rgba(221, 0, 17, 1)" stroke-width="1.5"></path><path d="M419.58 393.58L419.58 393.58" stroke="rgba(221, 0, 17, 1)" stroke-width="1.5"></path><path d="M419.58 393.58L471.47 403.75" stroke="rgba(221, 0, 17, 1)" stroke-width="1.5"></path><path d="M419.58 393.58L463.07 335.03" stroke="rgba(221, 0, 17, 1)" stroke-width="1.5"></path><path d="M419.58 393.58L329.38 391.85" stroke="rgba(221, 0, 17, 1)" stroke-width="1.5"></path><path d="M419.58 393.58L347.33 459.88" stroke="rgba(221, 0, 17, 1)" stroke-width="1.5"></path><path d="M419.58 393.58L477.34 476.59" stroke="rgba(221, 0, 17, 1)" stroke-width="1.5"></path><path d="M458.96 -18.17L458.96 -18.17" stroke="rgba(221, 0, 17, 1)" stroke-width="1.5"></path><path d="M458.96 -18.17L454.78 18.63" stroke="rgba(221, 0, 17, 1)" stroke-width="1.5"></path><path d="M458.96 -18.17L396.92 -21.7" stroke="rgba(221, 0, 17, 1)" stroke-width="1.5"></path><path d="M458.96 -18.17L397.9 29.08" stroke="rgba(221, 0, 17, 1)" stroke-width="1.5"></path><path d="M458.96 -18.17L523.04 43.17" stroke="rgba(221, 0, 17, 1)" stroke-width="1.5"></path><path d="M458.96 -18.17L356.62 -34.05" stroke="rgba(221, 0, 17, 1)" stroke-width="1.5"></path><path d="M454.78 18.63L454.78 18.63" stroke="rgba(221, 0, 17, 1)" stroke-width="1.5"></path><path d="M457.33 97.45L457.33 97.45" stroke="rgba(221, 0, 17, 1)" stroke-width="1.5"></path><path d="M457.33 97.45L453.43 147.5" stroke="rgba(221, 0, 17, 1)" stroke-width="1.5"></path><path d="M457.33 97.45L519.63 103.43" stroke="rgba(221, 0, 17, 1)" stroke-width="1.5"></path><path d="M457.33 97.45L454.78 18.63" stroke="rgba(221, 0, 17, 1)" stroke-width="1.5"></path><path d="M457.33 97.45L528.55 144.24" stroke="rgba(221, 0, 17, 1)" stroke-width="1.5"></path><path d="M453.43 147.5L453.43 147.5" stroke="rgba(221, 0, 17, 1)" stroke-width="1.5"></path><path d="M453.43 147.5L470.27 211.13" stroke="rgba(221, 0, 17, 1)" stroke-width="1.5"></path><path d="M470.27 211.13L470.27 211.13" stroke="rgba(221, 0, 17, 1)" stroke-width="1.5"></path><path d="M470.27 211.13L480.93 271.3" stroke="rgba(221, 0, 17, 1)" stroke-width="1.5"></path><path d="M470.27 211.13L538.65 210.62" stroke="rgba(221, 0, 17, 1)" stroke-width="1.5"></path><path d="M480.93 271.3L480.93 271.3" stroke="rgba(221, 0, 17, 1)" stroke-width="1.5"></path><path d="M480.93 271.3L534.63 281.08" stroke="rgba(221, 0, 17, 1)" stroke-width="1.5"></path><path d="M480.93 271.3L463.07 335.03" stroke="rgba(221, 0, 17, 1)" stroke-width="1.5"></path><path d="M480.93 271.3L538.65 210.62" stroke="rgba(221, 0, 17, 1)" stroke-width="1.5"></path><path d="M480.93 271.3L546.5 340.27" stroke="rgba(221, 0, 17, 1)" stroke-width="1.5"></path><path d="M463.07 335.03L463.07 335.03" stroke="rgba(221, 0, 17, 1)" stroke-width="1.5"></path><path d="M463.07 335.03L471.47 403.75" stroke="rgba(221, 0, 17, 1)" stroke-width="1.5"></path><path d="M471.47 403.75L471.47 403.75" stroke="rgba(221, 0, 17, 1)" stroke-width="1.5"></path><path d="M471.47 403.75L537.76 396.68" stroke="rgba(221, 0, 17, 1)" stroke-width="1.5"></path><path d="M477.34 476.59L477.34 476.59" stroke="rgba(221, 0, 17, 1)" stroke-width="1.5"></path><path d="M477.34 476.59L467.33 515.81" stroke="rgba(221, 0, 17, 1)" stroke-width="1.5"></path><path d="M477.34 476.59L524.18 478.88" stroke="rgba(221, 0, 17, 1)" stroke-width="1.5"></path><path d="M477.34 476.59L471.47 403.75" stroke="rgba(221, 0, 17, 1)" stroke-width="1.5"></path><path d="M477.34 476.59L537.76 396.68" stroke="rgba(221, 0, 17, 1)" stroke-width="1.5"></path><path d="M467.33 515.81L467.33 515.81" stroke="rgba(221, 0, 17, 1)" stroke-width="1.5"></path><path d="M467.33 515.81L524.18 478.88" stroke="rgba(221, 0, 17, 1)" stroke-width="1.5"></path><path d="M467.33 515.81L471.47 403.75" stroke="rgba(221, 0, 17, 1)" stroke-width="1.5"></path><path d="M467.33 515.81L419.58 393.58" stroke="rgba(221, 0, 17, 1)" stroke-width="1.5"></path><path d="M467.33 515.81L347.33 459.88" stroke="rgba(221, 0, 17, 1)" stroke-width="1.5"></path><path d="M523.04 43.17L523.04 43.17" stroke="rgba(221, 0, 17, 1)" stroke-width="1.5"></path><path d="M523.04 43.17L519.63 103.43" stroke="rgba(221, 0, 17, 1)" stroke-width="1.5"></path><path d="M523.04 43.17L454.78 18.63" stroke="rgba(221, 0, 17, 1)" stroke-width="1.5"></path><path d="M523.04 43.17L457.33 97.45" stroke="rgba(221, 0, 17, 1)" stroke-width="1.5"></path><path d="M523.04 43.17L528.55 144.24" stroke="rgba(221, 0, 17, 1)" stroke-width="1.5"></path><path d="M523.04 43.17L453.43 147.5" stroke="rgba(221, 0, 17, 1)" stroke-width="1.5"></path><path d="M519.63 103.43L519.63 103.43" stroke="rgba(221, 0, 17, 1)" stroke-width="1.5"></path><path d="M519.63 103.43L528.55 144.24" stroke="rgba(221, 0, 17, 1)" stroke-width="1.5"></path><path d="M519.63 103.43L453.43 147.5" stroke="rgba(221, 0, 17, 1)" stroke-width="1.5"></path><path d="M519.63 103.43L454.78 18.63" stroke="rgba(221, 0, 17, 1)" stroke-width="1.5"></path><path d="M528.55 144.24L528.55 144.24" stroke="rgba(221, 0, 17, 1)" stroke-width="1.5"></path><path d="M528.55 144.24L538.65 210.62" stroke="rgba(221, 0, 17, 1)" stroke-width="1.5"></path><path d="M528.55 144.24L453.43 147.5" stroke="rgba(221, 0, 17, 1)" stroke-width="1.5"></path><path d="M538.65 210.62L538.65 210.62" stroke="rgba(221, 0, 17, 1)" stroke-width="1.5"></path><path d="M538.65 210.62L534.63 281.08" stroke="rgba(221, 0, 17, 1)" stroke-width="1.5"></path><path d="M538.65 210.62L453.43 147.5" stroke="rgba(221, 0, 17, 1)" stroke-width="1.5"></path><path d="M534.63 281.08L534.63 281.08" stroke="rgba(221, 0, 17, 1)" stroke-width="1.5"></path><path d="M534.63 281.08L546.5 340.27" stroke="rgba(221, 0, 17, 1)" stroke-width="1.5"></path><path d="M534.63 281.08L463.07 335.03" stroke="rgba(221, 0, 17, 1)" stroke-width="1.5"></path><path d="M534.63 281.08L470.27 211.13" stroke="rgba(221, 0, 17, 1)" stroke-width="1.5"></path><path d="M534.63 281.08L537.76 396.68" stroke="rgba(221, 0, 17, 1)" stroke-width="1.5"></path><path d="M546.5 340.27L546.5 340.27" stroke="rgba(221, 0, 17, 1)" stroke-width="1.5"></path><path d="M546.5 340.27L537.76 396.68" stroke="rgba(221, 0, 17, 1)" stroke-width="1.5"></path><path d="M546.5 340.27L463.07 335.03" stroke="rgba(221, 0, 17, 1)" stroke-width="1.5"></path><path d="M546.5 340.27L471.47 403.75" stroke="rgba(221, 0, 17, 1)" stroke-width="1.5"></path><path d="M537.76 396.68L537.76 396.68" stroke="rgba(221, 0, 17, 1)" stroke-width="1.5"></path><path d="M537.76 396.68L524.18 478.88" stroke="rgba(221, 0, 17, 1)" stroke-width="1.5"></path><path d="M537.76 396.68L463.07 335.03" stroke="rgba(221, 0, 17, 1)" stroke-width="1.5"></path><path d="M524.18 478.88L524.18 478.88" stroke="rgba(221, 0, 17, 1)" stroke-width="1.5"></path><path d="M524.18 478.88L471.47 403.75" stroke="rgba(221, 0, 17, 1)" stroke-width="1.5"></path><circle r="5" cx="-31.13" cy="339.15" fill="rgba(221, 0, 17, 1)"></circle><circle r="5" cx="-24.58" cy="407.65" fill="rgba(221, 0, 17, 1)"></circle><circle r="5" cx="-37.59" cy="458.88" fill="rgba(221, 0, 17, 1)"></circle><circle r="5" cx="-17.56" cy="543.48" fill="rgba(221, 0, 17, 1)"></circle><circle r="5" cx="26.12" cy="355.1" fill="rgba(221, 0, 17, 1)"></circle><circle r="5" cx="18.47" cy="403.52" fill="rgba(221, 0, 17, 1)"></circle><circle r="5" cx="39.22" cy="462.33" fill="rgba(221, 0, 17, 1)"></circle><circle r="5" cx="43.37" cy="530.19" fill="rgba(221, 0, 17, 1)"></circle><circle r="5" cx="99.07" cy="350.48" fill="rgba(221, 0, 17, 1)"></circle><circle r="5" cx="108.4" cy="395.73" fill="rgba(221, 0, 17, 1)"></circle><circle r="5" cx="104.41" cy="463.54" fill="rgba(221, 0, 17, 1)"></circle><circle r="5" cx="103.86" cy="543.35" fill="rgba(221, 0, 17, 1)"></circle><circle r="5" cx="169.28" cy="268.93" fill="rgba(221, 0, 17, 1)"></circle><circle r="5" cx="152.34" cy="340.92" fill="rgba(221, 0, 17, 1)"></circle><circle r="5" cx="149.59" cy="394.55" fill="rgba(221, 0, 17, 1)"></circle><circle r="5" cx="166.61" cy="463.28" fill="rgba(221, 0, 17, 1)"></circle><circle r="5" cx="167.86" cy="524.61" fill="rgba(221, 0, 17, 1)"></circle><circle r="5" cx="232.83" cy="213.4" fill="rgba(221, 0, 17, 1)"></circle><circle r="5" cx="227.64" cy="267.83" fill="rgba(221, 0, 17, 1)"></circle><circle r="5" cx="211.46" cy="355.15" fill="rgba(221, 0, 17, 1)"></circle><circle r="5" cx="220.06" cy="407.59" fill="rgba(221, 0, 17, 1)"></circle><circle r="5" cx="219.72" cy="459.61" fill="rgba(221, 0, 17, 1)"></circle><circle r="5" cx="217.53" cy="531.15" fill="rgba(221, 0, 17, 1)"></circle><circle r="5" cx="288.22" cy="96.26" fill="rgba(221, 0, 17, 1)"></circle><circle r="5" cx="277.24" cy="142.65" fill="rgba(221, 0, 17, 1)"></circle><circle r="5" cx="275.87" cy="276.83" fill="rgba(221, 0, 17, 1)"></circle><circle r="5" cx="290.04" cy="397.72" fill="rgba(221, 0, 17, 1)"></circle><circle r="5" cx="269.87" cy="478.73" fill="rgba(221, 0, 17, 1)"></circle><circle r="5" cx="291.64" cy="544.44" fill="rgba(221, 0, 17, 1)"></circle><circle r="5" cx="356.62" cy="-34.05" fill="rgba(221, 0, 17, 1)"></circle><circle r="5" cx="352.97" cy="32.38" fill="rgba(221, 0, 17, 1)"></circle><circle r="5" cx="356.66" cy="100.48" fill="rgba(221, 0, 17, 1)"></circle><circle r="5" cx="338.59" cy="143.57" fill="rgba(221, 0, 17, 1)"></circle><circle r="5" cx="337.18" cy="212.95" fill="rgba(221, 0, 17, 1)"></circle><circle r="5" cx="336.41" cy="283.88" fill="rgba(221, 0, 17, 1)"></circle><circle r="5" cx="346.32" cy="338.88" fill="rgba(221, 0, 17, 1)"></circle><circle r="5" cx="329.38" cy="391.85" fill="rgba(221, 0, 17, 1)"></circle><circle r="5" cx="347.33" cy="459.88" fill="rgba(221, 0, 17, 1)"></circle><circle r="5" cx="342.47" cy="519.1" fill="rgba(221, 0, 17, 1)"></circle><circle r="5" cx="396.92" cy="-21.7" fill="rgba(221, 0, 17, 1)"></circle><circle r="5" cx="397.9" cy="29.08" fill="rgba(221, 0, 17, 1)"></circle><circle r="5" cx="397.37" cy="102.17" fill="rgba(221, 0, 17, 1)"></circle><circle r="5" cx="394.77" cy="160.86" fill="rgba(221, 0, 17, 1)"></circle><circle r="5" cx="393.95" cy="217.8" fill="rgba(221, 0, 17, 1)"></circle><circle r="5" cx="399.23" cy="294.09" fill="rgba(221, 0, 17, 1)"></circle><circle r="5" cx="419.58" cy="393.58" fill="rgba(221, 0, 17, 1)"></circle><circle r="5" cx="458.96" cy="-18.17" fill="rgba(221, 0, 17, 1)"></circle><circle r="5" cx="454.78" cy="18.63" fill="rgba(221, 0, 17, 1)"></circle><circle r="5" cx="457.33" cy="97.45" fill="rgba(221, 0, 17, 1)"></circle><circle r="5" cx="453.43" cy="147.5" fill="rgba(221, 0, 17, 1)"></circle><circle r="5" cx="470.27" cy="211.13" fill="rgba(221, 0, 17, 1)"></circle><circle r="5" cx="480.93" cy="271.3" fill="rgba(221, 0, 17, 1)"></circle><circle r="5" cx="463.07" cy="335.03" fill="rgba(221, 0, 17, 1)"></circle><circle r="5" cx="471.47" cy="403.75" fill="rgba(221, 0, 17, 1)"></circle><circle r="5" cx="477.34" cy="476.59" fill="rgba(221, 0, 17, 1)"></circle><circle r="5" cx="467.33" cy="515.81" fill="rgba(221, 0, 17, 1)"></circle><circle r="5" cx="523.04" cy="43.17" fill="rgba(221, 0, 17, 1)"></circle><circle r="5" cx="519.63" cy="103.43" fill="rgba(221, 0, 17, 1)"></circle><circle r="5" cx="528.55" cy="144.24" fill="rgba(221, 0, 17, 1)"></circle><circle r="5" cx="538.65" cy="210.62" fill="rgba(221, 0, 17, 1)"></circle><circle r="5" cx="534.63" cy="281.08" fill="rgba(221, 0, 17, 1)"></circle><circle r="5" cx="546.5" cy="340.27" fill="rgba(221, 0, 17, 1)"></circle><circle r="5" cx="537.76" cy="396.68" fill="rgba(221, 0, 17, 1)"></circle><circle r="5" cx="524.18" cy="478.88" fill="rgba(221, 0, 17, 1)"></circle><path d="M-18.95 399.95L-18.95 399.95" stroke="hsl(355.4, 100%, 56.3%)" stroke-width="1.5"></path><path d="M-18.95 399.95L30.96 401.96" stroke="hsl(355.4, 100%, 56.3%)" stroke-width="1.5"></path><path d="M-18.95 399.95L-25.58 458.72" stroke="hsl(355.4, 100%, 56.3%)" stroke-width="1.5"></path><path d="M-18.95 399.95L20.71 484.08" stroke="hsl(355.4, 100%, 56.3%)" stroke-width="1.5"></path><path d="M-18.95 399.95L100.74 411.81" stroke="hsl(355.4, 100%, 56.3%)" stroke-width="1.5"></path><path d="M-18.95 399.95L92.01 463.63" stroke="hsl(355.4, 100%, 56.3%)" stroke-width="1.5"></path><path d="M-18.95 399.95L23.11 524.87" stroke="hsl(355.4, 100%, 56.3%)" stroke-width="1.5"></path><path d="M23.11 524.87L23.11 524.87" stroke="hsl(355.4, 100%, 56.3%)" stroke-width="1.5"></path><path d="M23.11 524.87L20.71 484.08" stroke="hsl(355.4, 100%, 56.3%)" stroke-width="1.5"></path><path d="M23.11 524.87L79.75 535.73" stroke="hsl(355.4, 100%, 56.3%)" stroke-width="1.5"></path><path d="M100.74 411.81L100.74 411.81" stroke="hsl(355.4, 100%, 56.3%)" stroke-width="1.5"></path><path d="M100.74 411.81L148.1 420.81" stroke="hsl(355.4, 100%, 56.3%)" stroke-width="1.5"></path><path d="M100.74 411.81L92.01 463.63" stroke="hsl(355.4, 100%, 56.3%)" stroke-width="1.5"></path><path d="M100.74 411.81L151.21 454.78" stroke="hsl(355.4, 100%, 56.3%)" stroke-width="1.5"></path><path d="M100.74 411.81L30.96 401.96" stroke="hsl(355.4, 100%, 56.3%)" stroke-width="1.5"></path><path d="M151.21 454.78L151.21 454.78" stroke="hsl(355.4, 100%, 56.3%)" stroke-width="1.5"></path><path d="M151.21 454.78L148.1 420.81" stroke="hsl(355.4, 100%, 56.3%)" stroke-width="1.5"></path><path d="M151.21 454.78L92.01 463.63" stroke="hsl(355.4, 100%, 56.3%)" stroke-width="1.5"></path><path d="M151.21 454.78L226.96 482.86" stroke="hsl(355.4, 100%, 56.3%)" stroke-width="1.5"></path><path d="M151.21 454.78L225.06 410.47" stroke="hsl(355.4, 100%, 56.3%)" stroke-width="1.5"></path><path d="M151.21 454.78L148.54 543.7" stroke="hsl(355.4, 100%, 56.3%)" stroke-width="1.5"></path><path d="M148.54 543.7L148.54 543.7" stroke="hsl(355.4, 100%, 56.3%)" stroke-width="1.5"></path><path d="M148.54 543.7L215.51 542.9" stroke="hsl(355.4, 100%, 56.3%)" stroke-width="1.5"></path><path d="M148.54 543.7L79.75 535.73" stroke="hsl(355.4, 100%, 56.3%)" stroke-width="1.5"></path><path d="M148.54 543.7L92.01 463.63" stroke="hsl(355.4, 100%, 56.3%)" stroke-width="1.5"></path><path d="M225.06 410.47L225.06 410.47" stroke="hsl(355.4, 100%, 56.3%)" stroke-width="1.5"></path><path d="M225.06 410.47L268.35 397.48" stroke="hsl(355.4, 100%, 56.3%)" stroke-width="1.5"></path><path d="M225.06 410.47L226.96 482.86" stroke="hsl(355.4, 100%, 56.3%)" stroke-width="1.5"></path><path d="M330.32 280.55L330.32 280.55" stroke="hsl(355.4, 100%, 56.3%)" stroke-width="1.5"></path><path d="M330.32 280.55L272.83 293.17" stroke="hsl(355.4, 100%, 56.3%)" stroke-width="1.5"></path><path d="M330.32 280.55L354.47 207.7" stroke="hsl(355.4, 100%, 56.3%)" stroke-width="1.5"></path><path d="M330.32 280.55L408.87 283.98" stroke="hsl(355.4, 100%, 56.3%)" stroke-width="1.5"></path><path d="M330.32 280.55L407.47 227.43" stroke="hsl(355.4, 100%, 56.3%)" stroke-width="1.5"></path><path d="M407.47 227.43L407.47 227.43" stroke="hsl(355.4, 100%, 56.3%)" stroke-width="1.5"></path><path d="M407.47 227.43L354.47 207.7" stroke="hsl(355.4, 100%, 56.3%)" stroke-width="1.5"></path><path d="M407.47 227.43L408.87 283.98" stroke="hsl(355.4, 100%, 56.3%)" stroke-width="1.5"></path><path d="M407.47 227.43L467.77 230.58" stroke="hsl(355.4, 100%, 56.3%)" stroke-width="1.5"></path><path d="M475.94 459.11L475.94 459.11" stroke="hsl(355.4, 100%, 56.3%)" stroke-width="1.5"></path><path d="M475.94 459.11L520.83 460.73" stroke="hsl(355.4, 100%, 56.3%)" stroke-width="1.5"></path><path d="M475.94 459.11L461.85 402.22" stroke="hsl(355.4, 100%, 56.3%)" stroke-width="1.5"></path><path d="M475.94 459.11L480.61 519.29" stroke="hsl(355.4, 100%, 56.3%)" stroke-width="1.5"></path><path d="M543.42 288.76L543.42 288.76" stroke="hsl(355.4, 100%, 56.3%)" stroke-width="1.5"></path><path d="M543.42 288.76L543.05 346.12" stroke="hsl(355.4, 100%, 56.3%)" stroke-width="1.5"></path><path d="M543.42 288.76L483.04 284.76" stroke="hsl(355.4, 100%, 56.3%)" stroke-width="1.5"></path><path d="M543.42 288.76L518.27 208.62" stroke="hsl(355.4, 100%, 56.3%)" stroke-width="1.5"></path><path d="M543.42 288.76L463.01 338.11" stroke="hsl(355.4, 100%, 56.3%)" stroke-width="1.5"></path><path d="M-25.58 458.72L-25.58 458.72" stroke="hsl(355.4, 100%, 56.3%)" stroke-width="1.5"></path><path d="M-25.58 458.72L20.71 484.08" stroke="hsl(355.4, 100%, 56.3%)" stroke-width="1.5"></path><path d="M-25.58 458.72L30.96 401.96" stroke="hsl(355.4, 100%, 56.3%)" stroke-width="1.5"></path><path d="M-25.58 458.72L23.11 524.87" stroke="hsl(355.4, 100%, 56.3%)" stroke-width="1.5"></path><path d="M-25.58 458.72L-42.03 539.87" stroke="hsl(355.4, 100%, 56.3%)" stroke-width="1.5"></path><path d="M-42.03 539.87L-42.03 539.87" stroke="hsl(355.4, 100%, 56.3%)" stroke-width="1.5"></path><path d="M-42.03 539.87L23.11 524.87" stroke="hsl(355.4, 100%, 56.3%)" stroke-width="1.5"></path><path d="M-42.03 539.87L20.71 484.08" stroke="hsl(355.4, 100%, 56.3%)" stroke-width="1.5"></path><path d="M-42.03 539.87L79.75 535.73" stroke="hsl(355.4, 100%, 56.3%)" stroke-width="1.5"></path><path d="M-42.03 539.87L-18.95 399.95" stroke="hsl(355.4, 100%, 56.3%)" stroke-width="1.5"></path><path d="M30.96 401.96L30.96 401.96" stroke="hsl(355.4, 100%, 56.3%)" stroke-width="1.5"></path><path d="M30.96 401.96L20.71 484.08" stroke="hsl(355.4, 100%, 56.3%)" stroke-width="1.5"></path><path d="M30.96 401.96L92.01 463.63" stroke="hsl(355.4, 100%, 56.3%)" stroke-width="1.5"></path><path d="M30.96 401.96L148.1 420.81" stroke="hsl(355.4, 100%, 56.3%)" stroke-width="1.5"></path><path d="M20.71 484.08L20.71 484.08" stroke="hsl(355.4, 100%, 56.3%)" stroke-width="1.5"></path><path d="M20.71 484.08L92.01 463.63" stroke="hsl(355.4, 100%, 56.3%)" stroke-width="1.5"></path><path d="M20.71 484.08L79.75 535.73" stroke="hsl(355.4, 100%, 56.3%)" stroke-width="1.5"></path><path d="M92.01 463.63L92.01 463.63" stroke="hsl(355.4, 100%, 56.3%)" stroke-width="1.5"></path><path d="M92.01 463.63L148.1 420.81" stroke="hsl(355.4, 100%, 56.3%)" stroke-width="1.5"></path><path d="M79.75 535.73L79.75 535.73" stroke="hsl(355.4, 100%, 56.3%)" stroke-width="1.5"></path><path d="M79.75 535.73L92.01 463.63" stroke="hsl(355.4, 100%, 56.3%)" stroke-width="1.5"></path><path d="M148.1 420.81L148.1 420.81" stroke="hsl(355.4, 100%, 56.3%)" stroke-width="1.5"></path><path d="M226.96 482.86L226.96 482.86" stroke="hsl(355.4, 100%, 56.3%)" stroke-width="1.5"></path><path d="M226.96 482.86L275.5 467.52" stroke="hsl(355.4, 100%, 56.3%)" stroke-width="1.5"></path><path d="M226.96 482.86L215.51 542.9" stroke="hsl(355.4, 100%, 56.3%)" stroke-width="1.5"></path><path d="M215.51 542.9L215.51 542.9" stroke="hsl(355.4, 100%, 56.3%)" stroke-width="1.5"></path><path d="M215.51 542.9L266.96 540.35" stroke="hsl(355.4, 100%, 56.3%)" stroke-width="1.5"></path><path d="M272.83 293.17L272.83 293.17" stroke="hsl(355.4, 100%, 56.3%)" stroke-width="1.5"></path><path d="M272.83 293.17L268.35 397.48" stroke="hsl(355.4, 100%, 56.3%)" stroke-width="1.5"></path><path d="M272.83 293.17L354.47 207.7" stroke="hsl(355.4, 100%, 56.3%)" stroke-width="1.5"></path><path d="M272.83 293.17L334.8 401.4" stroke="hsl(355.4, 100%, 56.3%)" stroke-width="1.5"></path><path d="M268.35 397.48L268.35 397.48" stroke="hsl(355.4, 100%, 56.3%)" stroke-width="1.5"></path><path d="M268.35 397.48L334.8 401.4" stroke="hsl(355.4, 100%, 56.3%)" stroke-width="1.5"></path><path d="M268.35 397.48L275.5 467.52" stroke="hsl(355.4, 100%, 56.3%)" stroke-width="1.5"></path><path d="M268.35 397.48L226.96 482.86" stroke="hsl(355.4, 100%, 56.3%)" stroke-width="1.5"></path><path d="M275.5 467.52L275.5 467.52" stroke="hsl(355.4, 100%, 56.3%)" stroke-width="1.5"></path><path d="M275.5 467.52L266.96 540.35" stroke="hsl(355.4, 100%, 56.3%)" stroke-width="1.5"></path><path d="M275.5 467.52L350.58 473.25" stroke="hsl(355.4, 100%, 56.3%)" stroke-width="1.5"></path><path d="M275.5 467.52L225.06 410.47" stroke="hsl(355.4, 100%, 56.3%)" stroke-width="1.5"></path><path d="M266.96 540.35L266.96 540.35" stroke="hsl(355.4, 100%, 56.3%)" stroke-width="1.5"></path><path d="M266.96 540.35L226.96 482.86" stroke="hsl(355.4, 100%, 56.3%)" stroke-width="1.5"></path><path d="M354.47 207.7L354.47 207.7" stroke="hsl(355.4, 100%, 56.3%)" stroke-width="1.5"></path><path d="M354.47 207.7L405.35 146.34" stroke="hsl(355.4, 100%, 56.3%)" stroke-width="1.5"></path><path d="M354.47 207.7L408.87 283.98" stroke="hsl(355.4, 100%, 56.3%)" stroke-width="1.5"></path><path d="M354.47 207.7L454.29 167.88" stroke="hsl(355.4, 100%, 56.3%)" stroke-width="1.5"></path><path d="M334.8 401.4L334.8 401.4" stroke="hsl(355.4, 100%, 56.3%)" stroke-width="1.5"></path><path d="M334.8 401.4L350.58 473.25" stroke="hsl(355.4, 100%, 56.3%)" stroke-width="1.5"></path><path d="M334.8 401.4L275.5 467.52" stroke="hsl(355.4, 100%, 56.3%)" stroke-width="1.5"></path><path d="M334.8 401.4L418.24 336.55" stroke="hsl(355.4, 100%, 56.3%)" stroke-width="1.5"></path><path d="M334.8 401.4L225.06 410.47" stroke="hsl(355.4, 100%, 56.3%)" stroke-width="1.5"></path><path d="M334.8 401.4L413.34 481.43" stroke="hsl(355.4, 100%, 56.3%)" stroke-width="1.5"></path><path d="M350.58 473.25L350.58 473.25" stroke="hsl(355.4, 100%, 56.3%)" stroke-width="1.5"></path><path d="M350.58 473.25L349.01 525.33" stroke="hsl(355.4, 100%, 56.3%)" stroke-width="1.5"></path><path d="M349.01 525.33L349.01 525.33" stroke="hsl(355.4, 100%, 56.3%)" stroke-width="1.5"></path><path d="M349.01 525.33L414.88 530.59" stroke="hsl(355.4, 100%, 56.3%)" stroke-width="1.5"></path><path d="M405.69 -20.3L405.69 -20.3" stroke="hsl(355.4, 100%, 56.3%)" stroke-width="1.5"></path><path d="M405.69 -20.3L462.85 -40.36" stroke="hsl(355.4, 100%, 56.3%)" stroke-width="1.5"></path><path d="M405.69 -20.3L479.15 24.05" stroke="hsl(355.4, 100%, 56.3%)" stroke-width="1.5"></path><path d="M405.69 -20.3L516.64 -25.45" stroke="hsl(355.4, 100%, 56.3%)" stroke-width="1.5"></path><path d="M405.69 -20.3L416.58 106.73" stroke="hsl(355.4, 100%, 56.3%)" stroke-width="1.5"></path><path d="M405.69 -20.3L478.55 100" stroke="hsl(355.4, 100%, 56.3%)" stroke-width="1.5"></path><path d="M405.69 -20.3L544 23.06" stroke="hsl(355.4, 100%, 56.3%)" stroke-width="1.5"></path><path d="M416.58 106.73L416.58 106.73" stroke="hsl(355.4, 100%, 56.3%)" stroke-width="1.5"></path><path d="M416.58 106.73L405.35 146.34" stroke="hsl(355.4, 100%, 56.3%)" stroke-width="1.5"></path><path d="M416.58 106.73L478.55 100" stroke="hsl(355.4, 100%, 56.3%)" stroke-width="1.5"></path><path d="M416.58 106.73L454.29 167.88" stroke="hsl(355.4, 100%, 56.3%)" stroke-width="1.5"></path><path d="M416.58 106.73L479.15 24.05" stroke="hsl(355.4, 100%, 56.3%)" stroke-width="1.5"></path><path d="M416.58 106.73L354.47 207.7" stroke="hsl(355.4, 100%, 56.3%)" stroke-width="1.5"></path><path d="M416.58 106.73L537.12 96.65" stroke="hsl(355.4, 100%, 56.3%)" stroke-width="1.5"></path><path d="M405.35 146.34L405.35 146.34" stroke="hsl(355.4, 100%, 56.3%)" stroke-width="1.5"></path><path d="M405.35 146.34L454.29 167.88" stroke="hsl(355.4, 100%, 56.3%)" stroke-width="1.5"></path><path d="M408.87 283.98L408.87 283.98" stroke="hsl(355.4, 100%, 56.3%)" stroke-width="1.5"></path><path d="M408.87 283.98L418.24 336.55" stroke="hsl(355.4, 100%, 56.3%)" stroke-width="1.5"></path><path d="M418.24 336.55L418.24 336.55" stroke="hsl(355.4, 100%, 56.3%)" stroke-width="1.5"></path><path d="M418.24 336.55L463.01 338.11" stroke="hsl(355.4, 100%, 56.3%)" stroke-width="1.5"></path><path d="M418.24 336.55L461.85 402.22" stroke="hsl(355.4, 100%, 56.3%)" stroke-width="1.5"></path><path d="M418.24 336.55L483.04 284.76" stroke="hsl(355.4, 100%, 56.3%)" stroke-width="1.5"></path><path d="M418.24 336.55L330.32 280.55" stroke="hsl(355.4, 100%, 56.3%)" stroke-width="1.5"></path><path d="M413.34 481.43L413.34 481.43" stroke="hsl(355.4, 100%, 56.3%)" stroke-width="1.5"></path><path d="M413.34 481.43L414.88 530.59" stroke="hsl(355.4, 100%, 56.3%)" stroke-width="1.5"></path><path d="M413.34 481.43L350.58 473.25" stroke="hsl(355.4, 100%, 56.3%)" stroke-width="1.5"></path><path d="M413.34 481.43L475.94 459.11" stroke="hsl(355.4, 100%, 56.3%)" stroke-width="1.5"></path><path d="M413.34 481.43L480.61 519.29" stroke="hsl(355.4, 100%, 56.3%)" stroke-width="1.5"></path><path d="M414.88 530.59L414.88 530.59" stroke="hsl(355.4, 100%, 56.3%)" stroke-width="1.5"></path><path d="M414.88 530.59L480.61 519.29" stroke="hsl(355.4, 100%, 56.3%)" stroke-width="1.5"></path><path d="M414.88 530.59L350.58 473.25" stroke="hsl(355.4, 100%, 56.3%)" stroke-width="1.5"></path><path d="M462.85 -40.36L462.85 -40.36" stroke="hsl(355.4, 100%, 56.3%)" stroke-width="1.5"></path><path d="M462.85 -40.36L516.64 -25.45" stroke="hsl(355.4, 100%, 56.3%)" stroke-width="1.5"></path><path d="M479.15 24.05L479.15 24.05" stroke="hsl(355.4, 100%, 56.3%)" stroke-width="1.5"></path><path d="M479.15 24.05L516.64 -25.45" stroke="hsl(355.4, 100%, 56.3%)" stroke-width="1.5"></path><path d="M479.15 24.05L544 23.06" stroke="hsl(355.4, 100%, 56.3%)" stroke-width="1.5"></path><path d="M478.55 100L478.55 100" stroke="hsl(355.4, 100%, 56.3%)" stroke-width="1.5"></path><path d="M478.55 100L537.12 96.65" stroke="hsl(355.4, 100%, 56.3%)" stroke-width="1.5"></path><path d="M478.55 100L454.29 167.88" stroke="hsl(355.4, 100%, 56.3%)" stroke-width="1.5"></path><path d="M478.55 100L479.15 24.05" stroke="hsl(355.4, 100%, 56.3%)" stroke-width="1.5"></path><path d="M454.29 167.88L454.29 167.88" stroke="hsl(355.4, 100%, 56.3%)" stroke-width="1.5"></path><path d="M454.29 167.88L467.77 230.58" stroke="hsl(355.4, 100%, 56.3%)" stroke-width="1.5"></path><path d="M454.29 167.88L529.35 163.27" stroke="hsl(355.4, 100%, 56.3%)" stroke-width="1.5"></path><path d="M467.77 230.58L467.77 230.58" stroke="hsl(355.4, 100%, 56.3%)" stroke-width="1.5"></path><path d="M467.77 230.58L518.27 208.62" stroke="hsl(355.4, 100%, 56.3%)" stroke-width="1.5"></path><path d="M483.04 284.76L483.04 284.76" stroke="hsl(355.4, 100%, 56.3%)" stroke-width="1.5"></path><path d="M483.04 284.76L467.77 230.58" stroke="hsl(355.4, 100%, 56.3%)" stroke-width="1.5"></path><path d="M483.04 284.76L463.01 338.11" stroke="hsl(355.4, 100%, 56.3%)" stroke-width="1.5"></path><path d="M483.04 284.76L408.87 283.98" stroke="hsl(355.4, 100%, 56.3%)" stroke-width="1.5"></path><path d="M463.01 338.11L463.01 338.11" stroke="hsl(355.4, 100%, 56.3%)" stroke-width="1.5"></path><path d="M463.01 338.11L461.85 402.22" stroke="hsl(355.4, 100%, 56.3%)" stroke-width="1.5"></path><path d="M461.85 402.22L461.85 402.22" stroke="hsl(355.4, 100%, 56.3%)" stroke-width="1.5"></path><path d="M461.85 402.22L529.1 396.69" stroke="hsl(355.4, 100%, 56.3%)" stroke-width="1.5"></path><path d="M461.85 402.22L520.83 460.73" stroke="hsl(355.4, 100%, 56.3%)" stroke-width="1.5"></path><path d="M480.61 519.29L480.61 519.29" stroke="hsl(355.4, 100%, 56.3%)" stroke-width="1.5"></path><path d="M480.61 519.29L521.99 532.37" stroke="hsl(355.4, 100%, 56.3%)" stroke-width="1.5"></path><path d="M480.61 519.29L520.83 460.73" stroke="hsl(355.4, 100%, 56.3%)" stroke-width="1.5"></path><path d="M480.61 519.29L461.85 402.22" stroke="hsl(355.4, 100%, 56.3%)" stroke-width="1.5"></path><path d="M516.64 -25.45L516.64 -25.45" stroke="hsl(355.4, 100%, 56.3%)" stroke-width="1.5"></path><path d="M516.64 -25.45L544 23.06" stroke="hsl(355.4, 100%, 56.3%)" stroke-width="1.5"></path><path d="M544 23.06L544 23.06" stroke="hsl(355.4, 100%, 56.3%)" stroke-width="1.5"></path><path d="M544 23.06L537.12 96.65" stroke="hsl(355.4, 100%, 56.3%)" stroke-width="1.5"></path><path d="M537.12 96.65L537.12 96.65" stroke="hsl(355.4, 100%, 56.3%)" stroke-width="1.5"></path><path d="M537.12 96.65L529.35 163.27" stroke="hsl(355.4, 100%, 56.3%)" stroke-width="1.5"></path><path d="M537.12 96.65L479.15 24.05" stroke="hsl(355.4, 100%, 56.3%)" stroke-width="1.5"></path><path d="M537.12 96.65L454.29 167.88" stroke="hsl(355.4, 100%, 56.3%)" stroke-width="1.5"></path><path d="M529.35 163.27L529.35 163.27" stroke="hsl(355.4, 100%, 56.3%)" stroke-width="1.5"></path><path d="M529.35 163.27L518.27 208.62" stroke="hsl(355.4, 100%, 56.3%)" stroke-width="1.5"></path><path d="M518.27 208.62L518.27 208.62" stroke="hsl(355.4, 100%, 56.3%)" stroke-width="1.5"></path><path d="M518.27 208.62L454.29 167.88" stroke="hsl(355.4, 100%, 56.3%)" stroke-width="1.5"></path><path d="M518.27 208.62L483.04 284.76" stroke="hsl(355.4, 100%, 56.3%)" stroke-width="1.5"></path><path d="M543.05 346.12L543.05 346.12" stroke="hsl(355.4, 100%, 56.3%)" stroke-width="1.5"></path><path d="M543.05 346.12L529.1 396.69" stroke="hsl(355.4, 100%, 56.3%)" stroke-width="1.5"></path><path d="M543.05 346.12L463.01 338.11" stroke="hsl(355.4, 100%, 56.3%)" stroke-width="1.5"></path><path d="M529.1 396.69L529.1 396.69" stroke="hsl(355.4, 100%, 56.3%)" stroke-width="1.5"></path><path d="M529.1 396.69L520.83 460.73" stroke="hsl(355.4, 100%, 56.3%)" stroke-width="1.5"></path><path d="M529.1 396.69L475.94 459.11" stroke="hsl(355.4, 100%, 56.3%)" stroke-width="1.5"></path><path d="M529.1 396.69L463.01 338.11" stroke="hsl(355.4, 100%, 56.3%)" stroke-width="1.5"></path><path d="M520.83 460.73L520.83 460.73" stroke="hsl(355.4, 100%, 56.3%)" stroke-width="1.5"></path><path d="M521.99 532.37L521.99 532.37" stroke="hsl(355.4, 100%, 56.3%)" stroke-width="1.5"></path><path d="M521.99 532.37L520.83 460.73" stroke="hsl(355.4, 100%, 56.3%)" stroke-width="1.5"></path><circle r="25" cx="-18.95" cy="399.95" fill="url(&quot;#SvgjsRadialGradient1053&quot;)"></circle><circle r="25" cx="23.11" cy="524.87" fill="url(&quot;#SvgjsRadialGradient1053&quot;)"></circle><circle r="25" cx="100.74" cy="411.81" fill="url(&quot;#SvgjsRadialGradient1053&quot;)"></circle><circle r="25" cx="151.21" cy="454.78" fill="url(&quot;#SvgjsRadialGradient1053&quot;)"></circle><circle r="25" cx="148.54" cy="543.7" fill="url(&quot;#SvgjsRadialGradient1053&quot;)"></circle><circle r="25" cx="225.06" cy="410.47" fill="url(&quot;#SvgjsRadialGradient1053&quot;)"></circle><circle r="25" cx="330.32" cy="280.55" fill="url(&quot;#SvgjsRadialGradient1053&quot;)"></circle><circle r="25" cx="407.47" cy="227.43" fill="url(&quot;#SvgjsRadialGradient1053&quot;)"></circle><circle r="25" cx="475.94" cy="459.11" fill="url(&quot;#SvgjsRadialGradient1053&quot;)"></circle><circle r="25" cx="543.42" cy="288.76" fill="url(&quot;#SvgjsRadialGradient1053&quot;)"></circle><circle r="5" cx="-25.58" cy="458.72" fill="#ee8088"></circle><circle r="5" cx="-42.03" cy="539.87" fill="#ee8088"></circle><circle r="5" cx="30.96" cy="401.96" fill="#ee8088"></circle><circle r="5" cx="20.71" cy="484.08" fill="#ee8088"></circle><circle r="5" cx="92.01" cy="463.63" fill="#ee8088"></circle><circle r="5" cx="79.75" cy="535.73" fill="#ee8088"></circle><circle r="5" cx="148.1" cy="420.81" fill="#ee8088"></circle><circle r="5" cx="226.96" cy="482.86" fill="#ee8088"></circle><circle r="5" cx="215.51" cy="542.9" fill="#ee8088"></circle><circle r="5" cx="272.83" cy="293.17" fill="#ee8088"></circle><circle r="5" cx="268.35" cy="397.48" fill="#ee8088"></circle><circle r="5" cx="275.5" cy="467.52" fill="#ee8088"></circle><circle r="5" cx="266.96" cy="540.35" fill="#ee8088"></circle><circle r="5" cx="354.47" cy="207.7" fill="#ee8088"></circle><circle r="5" cx="334.8" cy="401.4" fill="#ee8088"></circle><circle r="5" cx="350.58" cy="473.25" fill="#ee8088"></circle><circle r="5" cx="349.01" cy="525.33" fill="#ee8088"></circle><circle r="5" cx="405.69" cy="-20.3" fill="#ee8088"></circle><circle r="5" cx="416.58" cy="106.73" fill="#ee8088"></circle><circle r="5" cx="405.35" cy="146.34" fill="#ee8088"></circle><circle r="5" cx="408.87" cy="283.98" fill="#ee8088"></circle><circle r="5" cx="418.24" cy="336.55" fill="#ee8088"></circle><circle r="5" cx="413.34" cy="481.43" fill="#ee8088"></circle><circle r="5" cx="414.88" cy="530.59" fill="#ee8088"></circle><circle r="5" cx="462.85" cy="-40.36" fill="#ee8088"></circle><circle r="5" cx="479.15" cy="24.05" fill="#ee8088"></circle><circle r="5" cx="478.55" cy="100" fill="#ee8088"></circle><circle r="5" cx="454.29" cy="167.88" fill="#ee8088"></circle><circle r="5" cx="467.77" cy="230.58" fill="#ee8088"></circle><circle r="5" cx="483.04" cy="284.76" fill="#ee8088"></circle><circle r="5" cx="463.01" cy="338.11" fill="#ee8088"></circle><circle r="5" cx="461.85" cy="402.22" fill="#ee8088"></circle><circle r="5" cx="480.61" cy="519.29" fill="#ee8088"></circle><circle r="5" cx="516.64" cy="-25.45" fill="#ee8088"></circle><circle r="5" cx="544" cy="23.06" fill="#ee8088"></circle><circle r="5" cx="537.12" cy="96.65" fill="#ee8088"></circle><circle r="5" cx="529.35" cy="163.27" fill="#ee8088"></circle><circle r="5" cx="518.27" cy="208.62" fill="#ee8088"></circle><circle r="5" cx="543.05" cy="346.12" fill="#ee8088"></circle><circle r="5" cx="529.1" cy="396.69" fill="#ee8088"></circle><circle r="5" cx="520.83" cy="460.73" fill="#ee8088"></circle><circle r="5" cx="521.99" cy="532.37" fill="#ee8088"></circle></g><defs><mask id="SvgjsMask1052"><rect width="500" height="500" fill="#ffffff"></rect></mask><radialGradient id="SvgjsRadialGradient1053"><stop stop-color="#ffffff" offset="0.1"></stop><stop stop-color="rgba(221, 0, 17, 1)" offset="0.2"></stop><stop stop-color="rgba(221, 0, 17, 0)" offset="1"></stop></radialGradient></defs></svg>