<?xml version="1.0" encoding="UTF-8"?>
<svg id="Layer_1" data-name="Layer 1" xmlns="http://www.w3.org/2000/svg" viewBox="0 0 89 11.71">
  <defs>
    <style>
      .cls-1 {
        fill: #ffe234;
        stroke-width: 0px;
      }
    </style>
  </defs>
  <polygon class="cls-1" points="6.37 0 7.88 4.47 12.75 4.47 8.81 7.23 10.31 11.71 6.37 8.94 2.43 11.71 3.94 7.23 0 4.47 4.87 4.47 6.37 0"/>
  <polygon class="cls-1" points="82.62 0 84.13 4.47 89 4.47 85.06 7.23 86.56 11.71 82.62 8.94 78.68 11.71 80.19 7.23 76.25 4.47 81.12 4.47 82.62 0"/>
  <polygon class="cls-1" points="63.62 0 65.12 4.47 69.99 4.47 66.05 7.23 67.56 11.71 63.62 8.94 59.68 11.71 61.18 7.23 57.24 4.47 62.11 4.47 63.62 0"/>
  <polygon class="cls-1" points="44.61 0 46.12 4.47 50.98 4.47 47.05 7.23 48.55 11.71 44.61 8.94 40.67 11.71 42.18 7.23 38.24 4.47 43.11 4.47 44.61 0"/>
  <polygon class="cls-1" points="24.8 0 26.3 4.47 31.17 4.47 27.23 7.23 28.74 11.71 24.8 8.94 20.86 11.71 22.36 7.23 18.43 4.47 23.29 4.47 24.8 0"/>
</svg>