<svg xmlns="http://www.w3.org/2000/svg" version="1.1" xmlns:xlink="http://www.w3.org/1999/xlink" xmlns:svgjs="http://svgjs.dev/svgjs" width="1000" height="500" preserveAspectRatio="none" viewBox="0 0 1000 500"><g mask="url(&quot;#SvgjsMask1161&quot;)" fill="none"><rect width="1000" height="500" x="0" y="0" fill="rgba(33, 37, 41, 1)"></rect><path d="M0,411.256C76.408,407.316,135.785,351.431,205.269,319.405C288.276,281.146,408.273,286.904,448.188,204.68C487.916,122.842,423.529,27.777,387.359,-55.694C358.651,-121.946,301.648,-166.55,261.361,-226.471C213.721,-297.328,205.763,-402.122,129.128,-439.769C52.133,-477.593,-41.388,-444.664,-121.762,-414.683C-198.242,-386.155,-260.184,-333.382,-315.93,-273.755C-373.546,-212.127,-448.847,-148.935,-449.087,-64.569C-449.327,19.639,-358.605,71.543,-317.123,144.825C-280.341,209.803,-276.507,293.268,-219.339,341.298C-159.367,391.683,-78.224,415.289,0,411.256" fill="#16181b"></path><path d="M1000 866.519C1065.946 850.624 1095.855 774.454 1154.757 740.807 1218.669 704.298 1313.3899999999999 722.452 1356.56 662.836 1399.647 603.3340000000001 1384.1309999999999 518.707 1367.383 447.178 1351.542 379.521 1311.846 321.683 1264.725 270.61400000000003 1218.759 220.79700000000003 1164.138 181.099 1100.454 157.88600000000002 1033.692 133.551 956.289 103.06 892.844 135.062 829.2860000000001 167.12099999999998 821.004 253.028 787.407 315.78700000000003 761.84 363.54499999999996 737.6279999999999 408.709 719.0989999999999 459.613 695.698 523.901 651.966 585.934 664.598 653.173 678.114 725.121 726.74 789.7950000000001 788.51 829.086 850.167 868.3050000000001 928.961 883.642 1000 866.519" fill="#2d3237"></path></g><defs><mask id="SvgjsMask1161"><rect width="1000" height="500" fill="#ffffff"></rect></mask></defs></svg>