<svg id="svg" xmlns="http://www.w3.org/2000/svg" xmlns:xlink="http://www.w3.org/1999/xlink" width="400" height="400" viewBox="0, 0, 400,400"><g id="svgg"><path id="path0" d="M0.000 200.000 L 0.000 400.000 200.000 400.000 L 400.000 400.000 400.000 298.868 C 400.000 202.884,399.955 197.736,399.119 197.745 C 398.231 197.754,380.861 202.098,380.628 202.369 C 380.559 202.450,382.753 206.104,385.505 210.491 C 388.256 214.877,390.403 218.570,390.276 218.697 C 390.149 218.824,386.341 217.051,381.815 214.757 C 377.288 212.463,373.224 210.432,372.783 210.244 C 372.117 209.960,371.531 211.366,369.331 218.536 C 366.042 229.251,366.193 229.123,364.286 222.828 C 362.934 218.364,361.213 212.768,360.466 210.404 C 360.319 209.939,357.577 211.120,351.374 214.320 C 346.490 216.840,342.311 218.838,342.088 218.759 C 341.865 218.681,343.952 215.028,346.725 210.643 C 349.499 206.257,351.633 202.535,351.469 202.370 C 351.304 202.206,346.973 201.039,341.843 199.777 C 336.714 198.515,332.523 197.280,332.530 197.033 C 332.537 196.786,336.720 195.541,341.827 194.267 C 346.934 192.992,351.248 191.814,351.414 191.647 C 351.580 191.481,349.457 187.755,346.696 183.367 C 343.935 178.979,341.756 175.309,341.854 175.211 C 341.952 175.113,346.074 177.068,351.016 179.555 C 355.957 182.041,360.138 183.923,360.306 183.736 C 360.475 183.549,361.817 179.486,363.289 174.706 C 364.761 169.927,366.130 166.191,366.332 166.404 C 366.533 166.618,367.871 170.642,369.304 175.346 C 370.738 180.050,371.981 183.970,372.067 184.057 C 372.153 184.143,376.232 182.148,381.132 179.623 C 386.032 177.097,390.155 175.145,390.294 175.283 C 390.432 175.422,388.371 179.017,385.713 183.273 C 383.055 187.529,380.884 191.222,380.888 191.480 C 380.894 191.900,397.820 196.253,399.371 196.234 C 399.872 196.228,400.000 176.264,400.000 98.113 L 400.000 0.000 200.000 0.000 L 0.000 0.000 0.000 200.000 M200.574 13.970 C 200.970 14.225,201.263 19.105,201.517 29.686 L 201.885 45.031 203.458 45.052 C 204.324 45.063,206.447 45.120,208.176 45.178 L 211.321 45.283 211.321 50.536 C 211.321 53.570,211.104 55.924,210.807 56.107 C 209.790 56.735,187.988 56.358,187.574 55.705 C 187.360 55.369,187.182 45.877,187.178 34.612 L 187.170 14.129 191.321 13.959 C 193.604 13.866,196.491 13.747,197.736 13.695 C 198.981 13.643,200.258 13.767,200.574 13.970 M242.522 18.821 C 262.496 24.157,264.329 25.719,261.693 35.163 C 260.406 39.772,259.531 41.137,257.255 42.088 C 255.507 42.818,255.492 42.850,256.520 43.570 C 258.277 44.801,258.370 47.271,256.880 53.218 C 253.943 64.938,251.853 65.521,231.971 60.167 C 227.393 58.935,222.686 57.676,221.509 57.371 C 218.810 56.671,218.666 58.000,223.359 40.380 C 225.553 32.146,227.869 23.371,228.505 20.881 C 229.695 16.226,230.142 15.459,231.447 15.842 C 231.862 15.963,236.846 17.304,242.522 18.821 M167.249 18.239 C 167.611 19.138,168.200 21.311,168.560 23.066 C 169.336 26.854,169.507 26.672,163.983 27.934 L 159.986 28.847 160.316 30.650 C 160.982 34.284,160.785 34.186,165.270 33.122 C 170.766 31.818,170.624 31.735,171.885 36.986 C 173.157 42.280,173.129 42.337,168.805 43.251 C 164.199 44.224,164.033 44.371,164.649 46.909 C 165.408 50.035,165.544 50.089,170.049 49.060 C 174.844 47.965,174.568 47.768,175.911 53.249 C 177.175 58.412,177.774 57.813,169.307 59.845 C 158.728 62.384,154.956 63.084,154.486 62.592 C 153.853 61.930,144.523 22.757,144.867 22.205 C 145.091 21.845,164.325 16.828,166.189 16.644 C 166.411 16.622,166.888 17.340,167.249 18.239 M243.816 27.296 C 241.720 34.705,241.687 35.324,243.396 35.128 C 245.123 34.929,247.374 28.005,245.995 27.133 C 244.981 26.491,244.023 26.562,243.816 27.296 M130.336 38.742 C 133.507 43.985,138.197 51.734,140.759 55.961 C 143.321 60.189,145.358 64.072,145.287 64.590 C 145.146 65.615,135.256 71.950,133.797 71.950 C 133.076 71.950,128.258 64.236,124.899 57.704 C 123.349 54.690,123.871 57.027,126.535 65.028 C 129.943 75.263,129.964 74.578,126.164 76.989 C 121.935 79.672,122.321 79.823,115.237 72.722 C 111.796 69.272,108.907 66.523,108.818 66.612 C 108.728 66.702,110.726 70.020,113.258 73.986 C 118.644 82.424,118.760 81.545,111.680 85.869 C 105.198 89.827,105.774 89.988,101.534 83.019 C 88.581 61.724,83.946 53.761,84.168 53.185 C 84.636 51.963,98.963 43.636,99.793 44.102 C 100.211 44.336,103.401 47.206,106.881 50.480 C 110.360 53.753,113.208 56.356,113.208 56.264 C 113.208 56.172,112.083 52.139,110.708 47.302 C 109.093 41.620,108.381 38.336,108.697 38.020 C 109.866 36.851,123.529 28.810,124.024 29.000 C 124.325 29.116,127.166 33.500,130.336 38.742 M293.727 39.419 C 295.586 40.621,299.201 42.915,301.761 44.516 C 307.258 47.953,307.104 46.957,303.617 56.496 C 302.078 60.706,298.865 69.528,296.476 76.101 C 291.483 89.839,292.376 89.093,285.872 84.952 C 283.196 83.249,280.497 81.545,279.874 81.167 C 278.399 80.272,278.443 79.631,280.252 75.643 C 281.082 73.812,281.761 72.254,281.761 72.181 C 281.761 72.037,278.273 69.937,278.033 69.937 C 277.951 69.937,276.817 71.296,275.513 72.956 C 272.576 76.694,272.695 76.702,265.660 72.245 C 258.654 67.807,258.687 68.266,264.906 61.780 C 292.097 33.416,288.619 36.115,293.727 39.419 M238.358 48.001 C 236.664 54.441,236.664 54.444,238.322 54.247 C 239.894 54.061,242.999 44.458,241.857 43.316 C 240.405 41.864,239.737 42.759,238.358 48.001 M286.744 58.994 C 285.279 60.723,283.731 62.555,283.304 63.064 C 282.599 63.906,282.617 64.054,283.499 64.700 C 284.870 65.702,285.237 65.596,285.831 64.025 C 286.119 63.264,287.132 61.113,288.083 59.245 C 290.209 55.066,290.090 55.043,286.744 58.994 M330.376 68.458 C 332.644 69.555,339.664 76.577,344.289 82.373 C 350.539 90.207,350.407 92.901,343.479 98.819 C 339.973 101.815,340.428 101.978,334.883 95.723 C 329.239 89.357,329.240 89.359,332.905 86.144 L 335.747 83.651 334.341 81.808 C 332.532 79.435,333.372 78.942,321.937 89.089 C 310.590 99.156,311.123 98.481,312.891 100.552 C 314.632 102.592,314.520 102.617,318.217 99.371 C 322.231 95.848,321.620 95.658,327.532 102.264 C 333.420 108.844,333.339 108.142,328.674 112.143 C 321.265 118.498,319.974 118.335,311.669 109.993 C 305.455 103.750,300.865 97.846,299.860 94.799 C 298.659 91.161,299.542 90.068,314.445 76.750 C 325.320 67.032,326.337 66.502,330.376 68.458 M67.333 75.906 C 69.181 76.974,74.881 80.059,80.000 82.759 C 104.278 95.567,102.301 93.369,96.076 100.629 C 90.628 106.982,91.250 106.727,87.369 104.199 C 83.639 101.769,83.609 101.766,82.099 103.677 L 80.928 105.160 83.483 108.026 C 87.028 112.004,87.300 111.118,79.851 119.851 C 76.150 124.189,77.083 124.633,69.307 114.843 C 58.774 101.582,52.178 93.152,50.884 91.295 L 49.692 89.585 55.886 82.151 C 63.897 72.538,62.670 73.207,67.333 75.906 M71.211 95.184 C 72.862 96.893,74.481 98.591,74.807 98.957 C 75.621 99.871,76.130 99.793,76.849 98.641 C 77.407 97.747,77.085 97.408,73.266 94.867 C 67.894 91.293,67.509 91.352,71.211 95.184 M366.034 114.207 C 370.079 122.279,370.242 121.358,364.277 124.123 C 359.292 126.435,357.960 127.495,360.629 127.028 C 371.993 125.041,371.052 124.704,374.726 132.081 C 379.145 140.951,379.757 140.190,367.967 140.486 L 358.071 140.735 356.017 142.952 C 354.887 144.171,352.491 146.852,350.692 148.909 C 340.114 161.006,341.364 160.676,337.278 152.453 C 333.314 144.473,333.145 145.409,339.684 139.173 C 342.761 136.238,345.132 133.836,344.952 133.836 C 344.771 133.836,341.883 135.195,338.534 136.855 C 335.185 138.516,332.141 139.874,331.769 139.874 C 331.054 139.874,325.031 127.776,325.031 126.339 C 325.031 125.475,359.994 107.807,361.883 107.715 C 362.519 107.685,363.660 109.469,366.034 114.207 M41.006 113.955 C 43.655 114.548,48.805 117.172,48.805 117.929 C 48.805 119.158,43.166 131.518,42.385 132.001 C 42.133 132.157,40.510 131.615,38.780 130.796 C 34.861 128.943,34.439 128.945,33.785 130.820 C 33.176 132.568,32.996 132.445,42.264 136.598 C 45.170 137.899,49.994 140.099,52.984 141.484 C 58.216 143.909,58.458 143.971,59.399 143.119 C 61.474 141.241,60.556 140.359,53.711 137.653 C 52.533 137.187,51.824 136.576,51.824 136.025 C 51.824 134.758,57.895 121.761,58.487 121.761 C 59.990 121.761,69.368 126.869,70.203 128.142 C 72.209 131.204,70.840 136.590,65.093 148.253 C 59.655 159.288,57.516 160.414,49.120 156.665 C 43.350 154.088,33.588 149.638,29.434 147.691 C 21.527 143.986,21.203 141.740,26.719 128.885 C 31.901 116.808,34.998 112.842,38.742 113.487 C 39.157 113.559,40.176 113.769,41.006 113.955 M188.096 121.791 C 191.099 122.435,194.724 124.658,198.329 128.066 C 202.707 132.205,205.297 134.090,209.798 136.415 L 214.062 138.616 221.486 138.472 C 229.966 138.307,230.098 138.347,235.465 142.652 C 240.888 147.003,244.939 148.430,254.656 149.410 C 266.725 150.628,268.780 150.941,270.906 151.881 C 274.632 153.530,276.606 155.705,280.784 162.767 C 283.250 166.937,287.945 173.175,292.532 178.378 C 302.925 190.165,302.902 189.700,294.546 218.868 C 292.238 226.925,291.321 227.803,291.321 221.957 C 291.321 218.862,291.494 218.299,293.297 215.524 C 295.683 211.851,296.727 208.458,297.308 202.487 C 297.549 200.012,297.848 197.648,297.973 197.233 C 298.098 196.818,298.102 196.657,297.982 196.876 C 297.862 197.095,297.475 197.035,297.122 196.742 C 295.613 195.489,294.361 197.243,294.346 200.629 C 294.330 204.450,292.983 202.316,292.678 197.986 C 292.309 192.757,291.626 191.099,291.126 194.222 L 290.785 196.359 288.498 196.045 C 286.219 195.733,286.212 195.737,286.481 197.111 C 287.395 201.777,288.369 224.738,287.813 228.535 C 286.162 239.831,279.808 246.103,269.937 246.181 C 265.000 246.220,262.781 244.986,266.541 244.292 C 275.308 242.676,283.774 238.457,283.774 235.706 C 283.774 234.750,282.936 234.756,282.399 235.716 C 280.407 239.275,266.686 243.405,263.147 241.511 C 261.674 240.723,262.008 240.512,268.057 238.416 C 275.616 235.797,275.666 235.293,268.176 237.233 C 262.026 238.825,261.233 238.822,260.616 237.200 C 259.666 234.700,259.955 234.266,263.394 233.033 C 267.687 231.493,267.860 231.004,264.004 231.313 C 259.688 231.660,259.556 231.444,259.089 223.252 C 258.510 213.089,257.705 208.302,256.576 208.302 C 255.294 208.302,255.044 207.735,254.046 202.553 C 253.562 200.042,252.882 196.580,252.535 194.859 C 251.760 191.017,252.381 188.707,255.196 184.960 C 256.234 183.579,256.985 182.352,256.866 182.233 C 256.561 181.928,252.724 185.031,251.833 186.303 C 250.941 187.577,251.251 187.893,248.063 182.475 C 246.624 180.031,244.783 177.314,243.971 176.437 L 242.495 174.843 244.323 178.868 C 245.328 181.082,246.678 184.059,247.323 185.485 C 250.840 193.252,252.779 203.004,253.511 216.604 C 254.431 233.691,252.011 239.354,243.160 240.823 C 237.393 241.781,227.143 242.280,226.737 241.624 C 226.372 241.033,226.103 241.129,237.736 237.714 C 246.042 235.276,249.560 233.841,249.560 232.892 C 249.560 232.591,249.199 232.484,248.758 232.653 C 248.317 232.822,244.751 233.890,240.833 235.025 C 226.734 239.111,225.912 239.234,225.912 237.249 C 225.912 235.905,228.263 235.005,238.491 232.436 C 240.843 231.845,242.881 231.242,243.019 231.096 C 243.561 230.523,224.243 233.347,221.182 234.288 C 219.690 234.746,221.875 221.569,223.453 220.594 C 224.480 219.959,223.821 219.308,222.455 219.608 C 220.790 219.974,220.396 219.177,220.384 215.419 C 220.380 214.213,220.050 211.949,219.649 210.387 C 219.249 208.825,218.815 206.642,218.685 205.535 C 218.275 202.040,216.802 195.189,215.063 188.679 C 212.128 177.698,210.725 165.604,211.984 162.138 C 212.232 161.456,212.200 161.006,211.903 161.006 C 211.191 161.006,209.308 165.116,209.308 166.670 C 209.308 168.949,208.615 168.587,205.567 164.715 C 203.009 161.465,200.755 159.364,200.755 160.230 C 200.755 160.375,201.520 161.498,202.456 162.724 C 212.577 175.983,219.124 214.278,213.301 226.164 C 212.693 227.404,212.421 227.694,212.590 226.918 C 212.742 226.226,212.976 223.962,213.110 221.887 C 213.371 217.861,213.297 217.898,211.272 222.792 C 207.707 231.411,193.289 239.842,185.710 237.739 C 183.884 237.233,181.597 236.735,180.629 236.633 L 178.868 236.448 181.384 237.830 C 183.227 238.842,184.628 239.218,186.627 239.234 C 188.331 239.248,189.432 239.490,189.562 239.880 C 189.697 240.286,189.226 240.503,188.205 240.503 L 186.641 240.503 189.566 243.396 C 194.755 248.528,195.782 258.125,191.835 264.599 C 187.319 272.004,186.730 272.296,175.346 272.776 C 166.240 273.161,163.569 273.626,153.711 276.545 C 148.243 278.164,135.364 277.876,131.772 276.055 C 124.678 272.459,121.482 265.631,122.369 255.970 C 122.600 253.458,121.659 253.807,121.003 256.477 C 120.263 259.488,119.893 259.541,118.720 256.804 C 114.517 246.999,113.474 241.165,115.003 236.017 C 116.158 232.127,115.574 232.358,113.167 236.744 L 111.038 240.623 110.142 239.435 C 105.087 232.733,104.343 223.473,108.237 215.728 C 110.863 210.506,111.975 204.995,111.224 200.932 C 109.684 192.604,112.134 180.228,115.515 179.249 C 116.611 178.931,119.294 193.009,119.269 198.948 C 119.249 203.692,119.308 203.606,116.772 202.591 C 114.455 201.664,113.653 202.253,115.381 203.612 C 118.282 205.894,120.349 209.667,120.512 212.978 C 120.879 220.432,123.103 225.356,128.137 229.857 C 131.598 232.953,131.821 233.408,130.330 234.339 C 129.364 234.942,127.541 237.898,127.909 238.265 C 128.010 238.367,129.442 238.086,131.091 237.641 C 134.953 236.599,142.537 236.616,147.328 237.676 C 151.494 238.598,155.681 238.695,160.595 237.984 C 164.932 237.357,169.542 237.272,173.318 237.751 L 176.321 238.131 174.856 236.578 C 171.918 233.466,171.489 231.378,171.058 218.113 C 170.584 203.526,169.589 197.794,166.032 189.169 C 162.593 180.828,161.851 174.757,163.510 168.519 C 165.000 162.917,164.267 162.759,161.919 168.176 C 160.701 170.984,160.305 171.105,159.216 168.999 C 157.921 166.496,154.562 163.150,151.437 161.252 C 147.497 158.858,147.022 159.049,149.854 161.887 C 157.197 169.246,158.771 172.795,163.857 193.459 C 170.692 221.235,168.813 226.802,151.285 230.690 C 143.934 232.321,134.342 230.946,129.976 227.634 C 126.341 224.877,123.274 215.020,123.265 206.064 C 123.257 198.804,122.075 186.742,120.722 180.114 C 118.275 168.124,119.088 154.700,122.691 147.579 C 127.786 137.512,133.615 134.999,146.404 137.356 C 158.237 139.538,162.422 138.062,173.676 127.737 C 181.019 120.999,182.177 120.522,188.096 121.791 M177.930 128.328 C 175.075 128.806,173.567 130.051,172.291 132.984 C 170.921 136.128,168.525 139.346,166.550 140.693 C 164.817 141.874,164.812 141.887,166.122 141.887 C 166.885 141.887,168.581 141.034,170.122 139.876 C 172.251 138.277,172.924 137.994,173.413 138.492 C 174.449 139.548,176.996 145.059,177.370 147.056 C 177.893 149.841,178.617 149.851,178.610 147.074 C 178.604 144.654,177.846 141.396,176.407 137.610 C 174.927 133.718,175.259 132.462,177.987 131.623 C 180.499 130.850,180.440 130.657,177.736 130.805 C 175.296 130.939,175.762 130.029,178.491 129.330 C 183.777 127.977,183.455 127.401,177.930 128.328 M197.233 131.191 C 197.233 131.718,204.402 140.550,207.410 143.728 C 208.762 145.157,209.065 145.266,210.395 144.802 C 212.202 144.172,212.659 144.502,211.536 145.624 C 210.403 146.758,210.977 147.182,212.688 146.476 C 213.458 146.158,215.107 145.700,216.352 145.457 C 217.949 145.146,218.209 145.000,217.233 144.961 C 214.928 144.869,215.637 143.585,218.616 142.456 C 220.231 141.843,218.789 141.906,213.208 142.690 C 210.377 143.088,206.333 140.446,201.019 134.726 C 198.937 132.484,197.233 130.894,197.233 131.191 M138.619 139.809 C 136.678 140.669,136.653 140.711,137.865 141.050 L 139.119 141.401 137.932 142.399 C 137.278 142.947,136.278 143.396,135.709 143.396 C 135.141 143.396,134.804 143.525,134.961 143.683 C 135.119 143.840,137.051 143.705,139.254 143.383 C 144.052 142.681,145.310 143.140,148.258 146.667 C 150.395 149.224,151.329 149.627,150.241 147.523 C 149.526 146.139,149.550 146.091,151.727 144.630 C 154.542 142.741,154.516 142.588,151.321 142.258 C 149.868 142.108,147.434 141.435,145.912 140.763 C 141.780 138.938,140.858 138.817,138.619 139.809 M129.937 144.576 C 127.601 146.887,129.017 150.352,134.984 156.926 C 140.779 163.309,141.115 161.573,135.607 153.711 C 133.194 150.267,131.824 147.074,131.824 144.895 C 131.824 143.127,131.465 143.066,129.937 144.576 M223.769 149.811 C 221.216 156.727,221.474 158.592,224.277 153.489 C 225.852 150.620,226.560 146.415,225.467 146.415 C 225.222 146.415,224.458 147.943,223.769 149.811 M214.981 147.407 C 213.362 147.791,210.818 149.212,210.818 149.731 C 210.818 149.882,211.270 149.861,211.824 149.686 C 213.382 149.191,213.012 150.219,211.195 151.436 C 209.511 152.563,210.532 152.730,212.929 151.719 C 213.633 151.423,213.927 151.874,214.602 154.296 C 216.534 161.220,216.590 161.254,216.747 155.597 L 216.891 150.440 218.215 150.440 C 219.779 150.440,219.377 149.806,217.736 149.686 C 215.788 149.542,216.408 148.192,218.501 148.019 C 219.545 147.933,220.267 147.650,220.107 147.390 C 219.768 146.843,217.320 146.851,214.981 147.407 M40.505 175.346 C 41.823 179.774,43.051 183.565,43.234 183.771 C 43.417 183.977,47.592 182.087,52.512 179.572 C 61.074 175.195,62.947 174.535,61.297 176.475 C 60.158 177.814,52.431 190.338,52.241 191.153 C 52.117 191.689,54.443 192.455,61.635 194.244 C 66.893 195.552,71.151 196.812,71.098 197.045 C 71.045 197.277,66.801 198.508,61.667 199.780 C 56.532 201.052,52.215 202.209,52.072 202.351 C 51.930 202.494,54.065 206.208,56.817 210.605 C 59.569 215.002,61.728 218.691,61.616 218.804 C 61.503 218.916,57.344 216.937,52.374 214.405 C 47.403 211.873,43.239 209.973,43.121 210.184 C 43.003 210.394,42.748 211.245,42.554 212.075 C 41.543 216.398,37.594 227.978,37.258 227.603 C 37.044 227.365,35.790 223.628,34.472 219.299 C 33.154 214.970,31.885 211.121,31.652 210.746 C 31.322 210.212,29.303 211.024,22.404 214.465 C 17.549 216.887,13.460 218.868,13.317 218.868 C 12.995 218.868,14.434 216.046,15.625 214.340 C 16.108 213.648,18.004 210.712,19.838 207.815 C 23.768 201.609,24.658 202.606,12.579 199.681 C 2.239 197.178,2.552 197.278,3.522 196.769 C 3.937 196.550,8.239 195.416,13.082 194.248 C 17.925 193.079,22.171 192.034,22.519 191.925 C 22.946 191.792,22.537 190.749,21.261 188.714 C 14.919 178.600,13.053 175.458,13.265 175.247 C 13.395 175.116,17.358 176.976,22.069 179.380 C 26.781 181.783,30.905 183.661,31.233 183.551 C 31.561 183.442,32.935 179.740,34.287 175.324 C 37.458 164.962,37.206 165.610,37.704 166.541 C 37.927 166.956,39.187 170.918,40.505 175.346 M273.082 171.416 C 271.849 171.738,271.984 172.606,273.523 174.265 C 274.577 175.403,275.110 175.621,276.164 175.348 C 276.890 175.159,278.503 174.876,279.748 174.719 L 282.013 174.432 279.283 173.883 C 275.894 173.201,275.237 172.075,278.227 172.075 C 279.488 172.075,280.188 171.877,280.000 171.572 C 279.694 171.077,274.802 170.967,273.082 171.416 M140.321 213.711 C 138.230 216.022,137.870 216.625,136.135 220.713 C 135.216 222.881,134.084 225.524,133.621 226.587 C 132.412 229.360,133.458 228.427,135.365 225.031 C 139.028 218.508,141.367 216.742,144.929 217.809 C 146.360 218.238,147.193 218.253,147.922 217.863 C 149.348 217.100,149.202 216.175,147.713 216.549 C 146.415 216.875,144.906 216.501,144.906 215.853 C 144.906 215.638,146.126 215.309,147.617 215.123 C 151.993 214.576,153.041 213.362,148.846 213.698 C 146.258 213.906,145.251 213.783,144.342 213.146 C 142.692 211.991,141.758 212.122,140.321 213.711 M146.667 222.971 C 145.339 223.700,140.377 228.522,140.377 229.084 C 140.377 229.326,141.087 228.926,141.954 228.197 C 144.956 225.671,147.100 224.906,151.175 224.906 C 153.528 224.906,154.969 224.702,154.969 224.369 C 154.969 224.068,154.543 223.966,154.005 224.138 C 153.474 224.306,152.895 224.208,152.717 223.920 C 152.509 223.583,153.329 223.396,155.023 223.396 C 159.042 223.396,157.780 223.067,152.453 222.725 C 149.361 222.527,147.318 222.614,146.667 222.971 M174.088 224.561 C 174.088 224.927,175.507 231.145,176.147 233.585 C 176.772 235.965,177.803 236.031,181.762 233.944 C 183.991 232.769,184.872 232.534,185.597 232.922 C 186.496 233.403,192.573 229.435,192.671 228.302 C 192.739 227.531,189.329 227.959,187.402 228.963 C 186.306 229.534,184.164 230.133,182.642 230.295 C 181.119 230.456,179.693 230.895,179.472 231.269 C 178.664 232.635,177.835 231.872,176.620 228.647 C 175.590 225.911,174.088 223.487,174.088 224.561 M201.006 226.205 C 199.899 226.598,198.201 227.622,197.233 228.478 C 194.847 230.588,189.733 233.931,188.367 234.274 C 187.321 234.537,187.296 234.647,187.942 236.144 C 188.320 237.020,188.923 237.662,189.283 237.571 C 191.142 237.104,200.055 230.412,202.376 227.740 C 204.536 225.255,204.329 225.022,201.006 226.205 M368.553 238.869 C 376.855 242.458,385.184 246.094,387.061 246.950 L 390.474 248.506 389.755 250.165 C 389.360 251.077,388.177 253.829,387.126 256.280 C 384.783 261.741,385.071 261.636,379.316 259.124 C 367.508 253.971,365.744 253.343,365.257 254.113 C 364.081 255.971,364.716 256.439,373.711 260.347 C 378.623 262.481,382.797 264.379,382.988 264.566 C 383.264 264.837,378.739 276.308,377.994 277.223 C 377.692 277.595,373.181 275.795,359.748 269.944 C 352.969 266.991,345.406 263.697,342.942 262.625 C 340.478 261.553,338.288 260.496,338.074 260.275 C 337.706 259.896,338.707 257.189,341.435 251.180 C 342.099 249.719,342.642 248.304,342.642 248.035 C 342.642 246.887,343.529 247.195,355.182 252.392 C 356.684 253.062,358.083 253.434,358.292 253.220 C 358.998 252.494,359.385 250.063,358.794 250.063 C 358.083 250.063,345.610 244.680,345.070 244.140 C 344.757 243.826,348.843 233.217,349.995 231.353 C 350.131 231.133,350.966 231.266,351.851 231.648 C 352.735 232.031,360.252 235.281,368.553 238.869 M60.188 244.277 C 68.037 263.826,67.894 265.992,58.507 269.604 C 53.981 271.346,51.534 271.592,50.033 270.456 C 48.563 269.344,47.799 269.534,47.799 271.010 C 47.799 275.803,31.395 281.554,27.732 278.044 C 25.321 275.734,16.046 255.369,16.119 252.544 C 16.138 251.807,54.907 235.972,56.277 236.142 C 56.654 236.189,58.392 239.804,60.188 244.277 M216.607 240.303 C 219.002 244.388,219.268 244.528,224.654 244.528 C 232.222 244.528,230.855 245.762,222.642 246.343 C 217.494 246.708,217.591 246.761,215.084 242.216 C 212.798 238.072,214.239 236.262,216.607 240.303 M129.096 243.098 C 128.607 244.378,128.296 245.846,128.405 246.360 C 128.532 246.962,128.923 246.352,129.500 244.652 C 130.635 241.308,130.288 239.976,129.096 243.098 M249.560 245.910 C 249.560 247.891,236.325 251.280,229.820 250.965 L 226.667 250.813 229.686 250.441 C 239.850 249.188,243.020 248.188,246.541 245.119 C 248.349 243.544,249.560 243.861,249.560 245.910 M172.250 247.084 C 161.188 248.967,154.918 257.294,159.040 264.629 C 161.426 268.874,164.217 269.717,176.341 269.849 L 184.381 269.937 185.242 268.122 C 187.873 262.579,188.125 253.651,185.791 248.688 L 184.900 246.792 179.871 246.717 C 177.106 246.676,173.676 246.841,172.250 247.084 M182.228 249.434 C 182.277 250.195,182.316 251.214,182.314 251.698 C 182.312 252.182,182.512 252.579,182.758 252.579 C 183.005 252.579,183.054 251.560,182.867 250.314 C 182.587 248.446,182.666 248.050,183.320 248.050 C 185.059 248.050,186.696 257.084,185.691 261.132 C 185.382 262.377,185.026 264.074,184.900 264.903 C 184.774 265.732,184.441 266.486,184.159 266.580 C 183.878 266.674,183.648 267.160,183.648 267.661 C 183.648 268.689,182.335 269.405,181.860 268.635 C 181.689 268.358,181.822 267.802,182.157 267.399 C 182.647 266.809,182.606 266.667,181.948 266.667 C 181.468 266.667,181.132 267.080,181.132 267.673 C 181.132 268.867,172.752 269.142,167.262 268.128 C 163.399 267.414,163.379 267.395,164.361 265.506 C 165.775 262.784,166.074 257.097,164.799 257.147 C 164.235 257.168,164.057 257.301,164.403 257.440 C 165.717 257.971,164.862 264.368,163.244 266.106 C 161.480 268.001,158.456 261.567,159.530 258.206 C 161.053 253.443,162.477 251.884,163.522 253.836 C 163.892 254.528,164.497 255.094,164.865 255.094 C 165.310 255.094,165.197 254.757,164.528 254.088 C 161.774 251.334,168.759 248.159,177.736 248.086 L 182.138 248.050 182.228 249.434 M127.467 258.239 C 127.521 263.151,127.514 267.170,127.450 267.170 C 127.387 267.170,126.845 266.660,126.247 266.038 L 125.160 264.906 125.490 266.918 C 125.857 269.162,131.085 274.619,134.199 276.008 C 137.194 277.344,146.195 277.175,149.182 275.727 L 151.698 274.508 149.686 274.335 C 146.761 274.084,146.423 273.334,146.360 266.948 C 146.256 256.302,145.672 254.426,145.316 263.590 C 144.981 272.210,144.841 272.680,142.611 272.697 C 140.510 272.712,139.612 271.066,138.116 264.459 C 136.404 256.898,135.302 256.370,136.260 263.570 C 137.240 270.926,136.952 271.663,133.603 270.377 C 131.588 269.604,128.676 261.117,127.843 253.585 C 127.421 249.777,127.380 250.288,127.467 258.239 M50.692 253.692 C 46.693 255.289,45.914 256.254,47.535 257.600 C 48.136 258.099,49.028 257.908,52.189 256.604 C 56.841 254.686,56.904 254.636,56.529 253.199 C 56.149 251.747,55.406 251.810,50.692 253.692 M154.233 255.689 C 152.648 261.026,153.456 266.216,156.011 267.107 C 157.723 267.704,157.751 267.637,156.671 265.548 C 155.603 263.482,154.939 257.912,155.441 255.220 C 155.999 252.225,155.166 252.549,154.233 255.689 M183.023 258.491 C 183.331 261.726,183.529 261.990,183.589 259.245 C 183.622 257.792,183.467 256.604,183.246 256.604 C 183.025 256.604,182.924 257.453,183.023 258.491 M33.459 260.517 C 30.415 261.789,27.841 262.890,27.738 262.964 C 27.321 263.264,28.238 265.660,28.770 265.660 C 31.674 265.660,40.289 261.322,40.150 259.931 C 39.944 257.880,39.721 257.900,33.459 260.517 M149.585 261.132 C 149.585 262.654,149.679 263.277,149.794 262.516 C 149.910 261.755,149.910 260.509,149.794 259.748 C 149.679 258.987,149.585 259.610,149.585 261.132 M182.482 263.338 C 182.317 263.767,182.383 264.243,182.629 264.395 C 183.271 264.791,183.653 263.967,183.181 263.204 C 182.869 262.699,182.716 262.728,182.482 263.338 M171.572 265.853 C 171.572 266.311,173.534 266.505,174.158 266.110 C 174.624 265.815,174.319 265.673,173.208 265.668 C 172.308 265.664,171.572 265.747,171.572 265.853 M336.427 267.296 C 338.474 268.185,344.654 272.692,344.654 273.296 C 344.654 274.098,337.076 284.277,336.480 284.277 C 336.183 284.277,334.788 283.413,333.379 282.358 C 329.795 279.674,329.605 279.587,328.783 280.270 C 327.078 281.685,328.806 283.420,338.787 290.310 C 339.385 290.723,342.365 292.887,345.409 295.119 C 352.549 300.354,352.097 300.125,353.239 299.091 C 354.654 297.811,354.625 297.770,349.811 294.322 C 343.475 289.784,343.597 290.596,348.291 284.211 C 350.676 280.968,352.611 278.792,352.983 278.935 C 354.696 279.592,363.472 286.597,364.316 287.980 C 366.181 291.039,364.984 294.308,358.867 302.860 C 350.916 313.977,347.965 315.056,340.701 309.503 C 338.280 307.653,334.842 305.138,326.102 298.824 C 314.504 290.447,314.114 288.067,322.547 277.137 C 330.650 266.635,332.267 265.489,336.427 267.296 M71.048 272.257 C 75.964 274.888,87.081 291.237,86.318 294.712 C 85.508 298.401,58.951 318.495,54.894 318.489 C 50.515 318.482,37.286 301.888,37.246 296.352 C 37.225 293.491,40.058 291.033,61.536 275.278 C 66.185 271.868,68.781 271.044,71.048 272.257 M68.594 287.955 C 66.333 289.668,60.956 293.665,56.644 296.837 C 48.588 302.765,48.325 303.051,49.489 304.643 C 50.149 305.545,50.233 305.536,51.879 304.377 C 57.610 300.342,74.966 287.194,74.953 286.897 C 74.925 286.288,73.623 284.778,73.152 284.810 C 72.906 284.827,70.855 286.242,68.594 287.955 M316.551 300.000 C 319.129 303.113,321.368 305.774,321.528 305.912 C 322.120 306.425,339.623 327.518,339.623 327.719 C 339.623 329.068,329.806 335.703,328.755 335.064 C 328.100 334.666,324.231 332.302,320.157 329.811 C 316.084 327.321,312.528 325.194,312.257 325.084 C 311.453 324.761,315.457 329.588,323.648 338.820 C 324.132 339.366,324.528 339.977,324.528 340.178 C 324.528 340.865,315.379 348.178,314.894 347.879 C 314.628 347.714,313.234 346.169,311.797 344.445 C 299.514 329.717,291.432 320.088,290.647 319.245 C 286.453 314.746,286.428 314.938,291.824 310.465 C 297.007 306.168,296.419 306.184,302.893 310.179 C 305.799 311.973,308.629 313.720,309.182 314.061 C 313.820 316.922,315.289 317.276,312.953 314.969 C 312.813 314.830,311.456 313.245,309.937 311.447 C 308.419 309.648,307.056 308.063,306.910 307.925 C 306.764 307.786,305.567 306.395,304.250 304.833 L 301.855 301.993 306.417 298.166 C 312.020 293.465,310.986 293.278,316.551 300.000 M98.140 302.461 C 104.058 307.305,103.858 306.179,100.106 313.537 C 98.435 316.815,97.204 319.497,97.371 319.497 C 97.538 319.497,99.929 317.555,102.686 315.182 C 105.442 312.809,107.904 310.941,108.157 311.031 C 108.874 311.286,117.739 318.644,117.712 318.962 C 117.699 319.118,113.737 322.054,108.907 325.486 C 104.077 328.918,100.126 331.897,100.126 332.106 C 100.126 332.315,99.150 334.601,97.957 337.186 C 96.764 339.772,94.681 344.321,93.328 347.296 C 90.399 353.735,91.077 353.604,85.192 348.871 C 79.166 344.024,79.273 344.912,83.746 336.824 C 87.565 329.917,88.028 328.553,85.938 330.359 C 83.798 332.210,81.734 333.995,78.494 336.797 C 76.698 338.351,74.951 339.623,74.614 339.623 C 73.881 339.623,64.906 332.237,64.906 331.633 C 64.906 331.276,73.689 324.646,81.556 319.066 C 83.737 317.520,84.102 316.890,88.036 307.896 C 90.330 302.654,92.415 298.365,92.670 298.365 C 92.926 298.365,95.387 300.208,98.140 302.461 M287.925 330.440 C 292.237 335.629,298.501 343.133,301.845 347.116 C 305.189 351.098,307.925 354.505,307.925 354.686 C 307.925 355.160,297.111 361.259,296.288 361.250 C 295.908 361.245,294.499 359.677,293.157 357.765 L 290.716 354.288 288.880 355.311 C 287.870 355.874,286.972 356.401,286.885 356.481 C 286.797 356.562,287.420 358.260,288.269 360.254 C 290.347 365.138,290.483 364.836,284.654 368.267 C 277.957 372.209,278.242 372.264,276.339 366.667 C 275.469 364.107,272.808 356.465,270.426 349.686 C 262.615 327.452,263.350 329.975,264.449 329.179 C 266.618 327.609,278.550 321.059,279.288 321.033 C 279.727 321.018,283.606 325.243,287.925 330.440 M129.378 325.825 C 132.660 327.645,135.346 329.290,135.346 329.481 C 135.346 329.671,134.422 331.409,133.292 333.341 C 132.163 335.274,130.093 339.006,128.692 341.635 C 127.291 344.264,125.984 346.642,125.787 346.918 C 125.590 347.195,124.576 349.006,123.533 350.943 C 116.562 363.891,114.488 367.333,113.743 367.193 C 112.400 366.939,102.138 361.114,102.138 360.605 C 102.138 360.047,103.969 356.646,115.330 336.101 C 117.396 332.365,119.925 327.780,120.951 325.912 C 123.193 321.830,122.192 321.840,129.378 325.825 M147.908 334.240 C 154.271 336.246,153.840 335.285,153.927 347.673 C 153.968 353.406,154.166 356.686,154.442 356.214 C 154.850 355.518,156.658 349.785,158.952 341.916 C 159.431 340.272,160.075 338.843,160.383 338.740 C 160.986 338.539,171.096 341.515,171.663 342.061 C 171.956 342.342,168.864 352.359,160.688 377.610 C 158.426 384.599,159.151 384.216,152.430 381.966 L 146.667 380.038 146.415 369.264 C 146.277 363.339,146.011 358.830,145.824 359.245 C 145.638 359.660,145.256 360.792,144.976 361.761 C 143.353 367.373,140.207 377.160,139.927 377.472 C 139.474 377.973,128.302 374.299,128.302 373.649 C 128.302 373.361,129.073 370.739,130.016 367.821 C 130.958 364.903,133.802 356.063,136.335 348.176 C 138.869 340.289,141.034 333.553,141.147 333.208 C 141.443 332.301,142.056 332.394,147.908 334.240 M256.456 335.836 C 260.668 337.044,264.668 350.361,261.906 353.982 L 260.668 355.605 262.171 355.906 C 264.742 356.420,265.937 358.193,267.847 364.329 C 270.185 371.840,270.947 374.756,270.648 375.054 C 270.299 375.403,258.763 378.868,257.951 378.868 C 257.518 378.868,256.497 376.293,255.109 371.698 C 252.507 363.088,252.356 362.767,250.884 362.767 C 249.042 362.767,249.055 362.917,251.618 371.218 C 252.961 375.564,254.065 379.365,254.073 379.665 C 254.097 380.538,241.371 384.390,240.715 383.708 C 240.416 383.398,239.556 381.107,238.803 378.616 C 238.051 376.126,235.284 366.986,232.654 358.306 C 230.025 349.626,227.977 342.421,228.103 342.296 C 228.612 341.786,248.499 336.024,251.069 335.641 C 253.847 335.227,254.404 335.247,256.456 335.836 M278.239 337.156 C 278.239 337.869,283.771 349.936,284.157 350.065 C 284.416 350.151,285.099 349.818,285.674 349.325 C 286.719 348.430,286.712 348.416,282.773 342.976 C 278.769 337.449,278.239 336.768,278.239 337.156 M201.413 344.163 C 208.162 345.139,209.308 346.660,209.308 354.647 C 209.308 360.543,210.012 360.082,201.509 359.751 L 194.969 359.497 194.969 354.969 L 194.969 350.440 193.459 350.440 L 191.950 350.440 191.643 355.489 C 191.474 358.265,191.247 365.171,191.139 370.835 L 190.943 381.132 192.453 381.132 L 193.962 381.132 194.227 377.358 C 194.543 372.845,194.334 371.321,193.400 371.321 C 192.879 371.321,192.704 370.499,192.704 368.050 L 192.704 364.780 200.210 364.780 C 204.339 364.780,208.018 364.895,208.387 365.036 C 209.100 365.309,209.138 371.023,208.505 382.791 L 208.200 388.475 205.358 388.383 C 203.145 388.310,202.229 388.025,201.223 387.094 C 199.949 385.915,199.906 385.911,198.204 386.786 C 195.316 388.270,183.696 388.068,180.465 386.477 C 176.377 384.465,176.395 384.575,176.960 365.718 C 177.541 346.319,177.818 345.195,182.267 344.138 C 184.656 343.571,197.434 343.588,201.413 344.163 M244.602 344.204 C 243.785 344.519,243.515 344.916,243.733 345.483 C 243.906 345.936,244.637 348.368,245.356 350.889 C 246.895 356.282,246.671 355.926,248.278 355.523 C 249.904 355.114,249.902 354.355,248.256 349.083 C 246.733 344.204,246.256 343.567,244.602 344.204 " stroke="none" fill="#000000" fill-rule="evenodd"></path></g></svg>