<svg xmlns="http://www.w3.org/2000/svg" version="1.1" xmlns:xlink="http://www.w3.org/1999/xlink" xmlns:svgjs="http://svgjs.dev/svgjs" width="2000" height="500" preserveAspectRatio="none" viewBox="0 0 2000 500"><g mask="url(&quot;#SvgjsMask1083&quot;)" fill="none"><rect width="2000" height="500" x="0" y="0" fill="rgba(0, 0, 0, 0.9)"></rect><path d="M53 500L553 0L841 0L341 500z" fill="url(&quot;#SvgjsLinearGradient1084&quot;)"></path><path d="M375 500L875 0L1092.5 0L592.5 500z" fill="url(&quot;#SvgjsLinearGradient1084&quot;)"></path><path d="M671 500L1171 0L1256.5 0L756.5 500z" fill="url(&quot;#SvgjsLinearGradient1084&quot;)"></path><path d="M1026 500L1526 0L1748 0L1248 500z" fill="url(&quot;#SvgjsLinearGradient1084&quot;)"></path><path d="M1986 500L1486 0L1163.5 0L1663.5 500z" fill="url(&quot;#SvgjsLinearGradient1085&quot;)"></path><path d="M1610 500L1110 0L990 0L1490 500z" fill="url(&quot;#SvgjsLinearGradient1085&quot;)"></path><path d="M1326 500L826 0L725.5 0L1225.5 500z" fill="url(&quot;#SvgjsLinearGradient1085&quot;)"></path><path d="M951 500L451 0L365.5 0L865.5 500z" fill="url(&quot;#SvgjsLinearGradient1085&quot;)"></path><path d="M1622.19388963024 500L2000 122.19388963023994L2000 500z" fill="url(&quot;#SvgjsLinearGradient1084&quot;)"></path><path d="M0 500L377.80611036976006 500L 0 122.19388963023994z" fill="url(&quot;#SvgjsLinearGradient1085&quot;)"></path></g><defs><mask id="SvgjsMask1083"><rect width="2000" height="500" fill="#ffffff"></rect></mask><linearGradient x1="0%" y1="100%" x2="100%" y2="0%" id="SvgjsLinearGradient1084"><stop stop-color="rgba(221, 0, 17, 0.9)" offset="0"></stop><stop stop-opacity="0" stop-color="rgba(221, 0, 17, 0.9)" offset="0.66"></stop></linearGradient><linearGradient x1="100%" y1="100%" x2="0%" y2="0%" id="SvgjsLinearGradient1085"><stop stop-color="rgba(221, 0, 17, 0.9)" offset="0"></stop><stop stop-opacity="0" stop-color="rgba(221, 0, 17, 0.9)" offset="0.66"></stop></linearGradient></defs></svg>